<svg width="40" height="40" viewBox="0 0 40 40" fill="none" xmlns="http://www.w3.org/2000/svg">
<g clip-path="url(#clip0_1_7226)">
<path d="M39.0332 28.2655C38.8763 28.0863 38.7629 27.8731 38.702 27.6428C38.6412 27.4124 38.6344 27.1711 38.6822 26.9377C38.7472 25.3656 38.42 24.7484 36.9745 23.994C36.7477 23.9173 36.5417 23.7893 36.3724 23.62C36.2032 23.4508 36.0752 23.2448 35.9985 23.018C35.2494 21.5809 34.6368 21.2444 33.056 21.3099C32.8222 21.3575 32.5805 21.3505 32.3498 21.2896C32.119 21.2287 31.9054 21.1155 31.7255 20.9587C30.357 20.0871 29.637 20.0863 28.2672 20.9587C28.0874 21.1154 27.8739 21.2287 27.6432 21.2896C27.4126 21.3505 27.171 21.3575 26.9373 21.3099C25.3813 21.2471 24.7557 21.5577 23.9948 23.0177C23.918 23.2446 23.79 23.4507 23.6206 23.62C23.4512 23.7893 23.2451 23.9173 23.0182 23.994C21.6124 24.7267 21.2436 25.3219 21.3104 26.9377C21.3582 27.171 21.3514 27.4122 21.2906 27.6425C21.2299 27.8727 21.1168 28.0858 20.9601 28.2652C20.0831 29.6396 20.0909 30.362 20.9595 31.7262C21.1164 31.9055 21.2297 32.1186 21.2906 32.349C21.3515 32.5793 21.3583 32.8206 21.3104 33.054C21.2454 34.6261 21.5727 35.2434 23.0182 35.9978C23.2449 36.0745 23.4509 36.2024 23.6202 36.3717C23.7895 36.541 23.9174 36.747 23.9941 36.9737C24.7508 38.4253 25.365 38.7432 26.9366 38.6818C27.1705 38.634 27.4122 38.6409 27.643 38.7018C27.8738 38.7627 28.0874 38.8761 28.2672 39.033C29.6356 39.9046 30.3557 39.9055 31.7254 39.033C31.9053 38.8763 32.1188 38.7631 32.3494 38.7022C32.5801 38.6412 32.8216 38.6343 33.0554 38.6818C34.627 38.747 35.2445 38.4195 35.9979 36.974C36.0746 36.7472 36.2027 36.5411 36.3721 36.3717C36.5414 36.2024 36.7476 36.0745 36.9745 35.9978C38.3803 35.265 38.749 34.6699 38.6822 33.054C38.6345 32.8207 38.6412 32.5795 38.702 32.3493C38.7628 32.119 38.8759 31.9059 39.0326 31.7265C39.9096 30.3521 39.9018 29.6297 39.0332 28.2655ZM35.1294 27.4223L30.1294 34.2973C30.0461 34.4118 29.938 34.5059 29.8132 34.5726C29.6884 34.6393 29.5501 34.6769 29.4087 34.6826C29.2673 34.6882 29.1264 34.6617 28.9967 34.6052C28.867 34.5486 28.7517 34.4634 28.6596 34.3559L24.9096 29.9809C24.7478 29.7922 24.6677 29.5469 24.6867 29.299C24.7058 29.0512 24.8225 28.821 25.0113 28.6592C25.2 28.4974 25.4453 28.4172 25.6932 28.4363C25.941 28.4553 26.1712 28.5721 26.333 28.7608L29.3109 32.235L33.6133 26.3194C33.7597 26.119 33.9798 25.9848 34.225 25.9464C34.4703 25.908 34.7208 25.9684 34.9216 26.1145C35.1223 26.2605 35.257 26.4802 35.2959 26.7254C35.3349 26.9706 35.275 27.2213 35.1294 27.4223Z" fill="#B189BA"/>
<path d="M39.4122 9.33651L30.6634 0.587694C30.4874 0.411736 30.2488 0.312766 30 0.3125H3.125C2.37933 0.313312 1.66443 0.609889 1.13716 1.13716C0.609889 1.66443 0.313312 2.37933 0.3125 3.125V31.875C0.313312 32.6207 0.609889 33.3356 1.13716 33.8628C1.66443 34.3901 2.37933 34.6867 3.125 34.6875H18.4955C18.7441 34.6875 18.9826 34.5887 19.1584 34.4129C19.3342 34.2371 19.433 33.9986 19.433 33.75C19.433 33.5014 19.3342 33.2629 19.1584 33.0871C18.9826 32.9113 18.7441 32.8125 18.4955 32.8125H3.125C2.87644 32.8122 2.63814 32.7134 2.46239 32.5376C2.28663 32.3619 2.18777 32.1236 2.1875 31.875V7.1875H5.3125V16.25C5.31264 16.4196 5.35878 16.586 5.44601 16.7315C5.53324 16.877 5.65829 16.9961 5.80785 17.0761C5.9574 17.1562 6.12587 17.1941 6.2953 17.186C6.46473 17.1779 6.62879 17.124 6.77 17.03L10 14.8767L13.23 17.03C13.3712 17.1239 13.5353 17.1777 13.7047 17.1858C13.8741 17.1938 14.0425 17.1559 14.192 17.0758C14.3415 16.9958 14.4665 16.8768 14.5538 16.7313C14.641 16.5859 14.6873 16.4196 14.6875 16.25V7.1875H29.0625V8.125C29.0633 8.87067 29.3599 9.58557 29.8872 10.1128C30.4144 10.6401 31.1293 10.9367 31.875 10.9375H37.8125V21.7609C37.8125 22.0095 37.9113 22.248 38.0871 22.4238C38.2629 22.5996 38.5014 22.6984 38.75 22.6984C38.9986 22.6984 39.2371 22.5996 39.4129 22.4238C39.5887 22.248 39.6875 22.0095 39.6875 21.7609V10C39.6833 9.75191 39.5849 9.51471 39.4122 9.33651ZM12.8125 14.4983L10.52 12.97C10.366 12.8673 10.1851 12.8125 9.99998 12.8125C9.8149 12.8125 9.63396 12.8673 9.47996 12.97L7.1875 14.4983V7.1875H12.8125V14.4983ZM2.1875 5.3125V3.125C2.18777 2.87644 2.28663 2.63814 2.46239 2.46239C2.63814 2.28663 2.87644 2.18777 3.125 2.1875H29.0625V5.3125H2.1875ZM30.9375 8.125V3.51318L36.4868 9.0625H31.875C31.6264 9.06223 31.3881 8.96337 31.2124 8.78761C31.0366 8.61186 30.9378 8.37356 30.9375 8.125Z" fill="#1F0D19"/>
<path d="M17.5 10.9375H25C25.2486 10.9375 25.4871 10.8387 25.6629 10.6629C25.8387 10.4871 25.9375 10.2486 25.9375 10C25.9375 9.75136 25.8387 9.5129 25.6629 9.33709C25.4871 9.16127 25.2486 9.0625 25 9.0625H17.5C17.2514 9.0625 17.0129 9.16127 16.8371 9.33709C16.6613 9.5129 16.5625 9.75136 16.5625 10C16.5625 10.2486 16.6613 10.4871 16.8371 10.6629C17.0129 10.8387 17.2514 10.9375 17.5 10.9375Z" fill="#1F0D19"/>
<path d="M17.5 14.6875H33.75C33.9986 14.6875 34.2371 14.5887 34.4129 14.4129C34.5887 14.2371 34.6875 13.9986 34.6875 13.75C34.6875 13.5014 34.5887 13.2629 34.4129 13.0871C34.2371 12.9113 33.9986 12.8125 33.75 12.8125H17.5C17.2514 12.8125 17.0129 12.9113 16.8371 13.0871C16.6613 13.2629 16.5625 13.5014 16.5625 13.75C16.5625 13.9986 16.6613 14.2371 16.8371 14.4129C17.0129 14.5887 17.2514 14.6875 17.5 14.6875Z" fill="#1F0D19"/>
<path d="M21.5625 21.25C21.5625 21.0014 21.4637 20.7629 21.2879 20.5871C21.1121 20.4113 20.8736 20.3125 20.625 20.3125H6.25C6.00136 20.3125 5.7629 20.4113 5.58709 20.5871C5.41127 20.7629 5.3125 21.0014 5.3125 21.25C5.3125 21.4986 5.41127 21.7371 5.58709 21.9129C5.7629 22.0887 6.00136 22.1875 6.25 22.1875H20.625C20.8736 22.1875 21.1121 22.0887 21.2879 21.9129C21.4637 21.7371 21.5625 21.4986 21.5625 21.25Z" fill="#1F0D19"/>
<path d="M17.5 24.0625H6.25C6.00136 24.0625 5.7629 24.1613 5.58709 24.3371C5.41127 24.5129 5.3125 24.7514 5.3125 25C5.3125 25.2486 5.41127 25.4871 5.58709 25.6629C5.7629 25.8387 6.00136 25.9375 6.25 25.9375H17.5C17.7486 25.9375 17.9871 25.8387 18.1629 25.6629C18.3387 25.4871 18.4375 25.2486 18.4375 25C18.4375 24.7514 18.3387 24.5129 18.1629 24.3371C17.9871 24.1613 17.7486 24.0625 17.5 24.0625Z" fill="#1F0D19"/>
<path d="M17.5 27.8125H6.25C6.00136 27.8125 5.7629 27.9113 5.58709 28.0871C5.41127 28.2629 5.3125 28.5014 5.3125 28.75C5.3125 28.9986 5.41127 29.2371 5.58709 29.4129C5.7629 29.5887 6.00136 29.6875 6.25 29.6875H17.5C17.7486 29.6875 17.9871 29.5887 18.1629 29.4129C18.3387 29.2371 18.4375 28.9986 18.4375 28.75C18.4375 28.5014 18.3387 28.2629 18.1629 28.0871C17.9871 27.9113 17.7486 27.8125 17.5 27.8125Z" fill="#1F0D19"/>
</g>
<defs>
<clipPath id="clip0_1_7226">
<rect width="40" height="40" fill="white"/>
</clipPath>
</defs>
</svg>
