<svg width="37" height="37" viewBox="0 0 37 37" fill="none" xmlns="http://www.w3.org/2000/svg">
<path opacity="0.25" fill-rule="evenodd" clip-rule="evenodd" d="M18.25 35.75C27.915 35.75 35.75 27.915 35.75 18.25C35.75 8.58502 27.915 0.75 18.25 0.75C8.58502 0.75 0.75 8.58502 0.75 18.25C0.75 27.915 8.58502 35.75 18.25 35.75Z" stroke="white" stroke-width="1.5"/>
<path d="M21.2258 19.6358L21.6404 16.9057H19.0468V15.1349C19.0468 14.3878 19.4084 13.6591 20.5701 13.6591H21.75V11.3349C21.75 11.3349 20.6797 11.1504 19.6568 11.1504C17.5199 11.1504 16.1244 12.4583 16.1244 14.825V16.9057H13.75V19.6358H16.1244V26.236C16.6011 26.3117 17.0888 26.3504 17.5856 26.3504C18.0824 26.3504 18.5701 26.3117 19.0468 26.236V19.6358H21.2258Z" fill="white"/>
</svg>
