<svg width="32" height="32" viewBox="0 0 32 32" fill="none" xmlns="http://www.w3.org/2000/svg">
<path d="M2.73962 28.9435C2.73963 26.3964 4.41579 24.1529 6.8584 23.4306L12.1091 21.8781H12.1092C12.5454 21.7491 12.8447 21.3484 12.8447 20.8935V20.4844C12.8447 20.1392 13.1246 19.8594 13.4697 19.8594C13.8149 19.8594 14.0947 20.1392 14.0947 20.4844V20.8935C14.0947 21.9022 13.4309 22.7907 12.4636 23.0767L7.21283 24.6293C5.30133 25.1945 3.98963 26.9502 3.98962 28.9435V30.7492H5.85327L5.88544 30.75C6.21566 30.7668 6.47827 31.0398 6.47827 31.3742C6.47826 31.7086 6.21565 31.9816 5.88544 31.9984L5.85327 31.9992H3.36462C3.01945 31.9992 2.73963 31.7194 2.73962 31.3742V28.9435Z" fill="#EDE8EB"/>
<path d="M27.3213 28.9435C27.3213 26.9502 26.0095 25.1945 24.098 24.6293L18.8473 23.0767C17.8799 22.7907 17.2161 21.9022 17.2161 20.8935V20.4844C17.2161 20.1392 17.496 19.8594 17.8411 19.8594C18.1863 19.8594 18.4661 20.1392 18.4661 20.4844V20.8935C18.4661 21.3484 18.7655 21.7491 19.2017 21.8781L24.4525 23.4306L24.5096 23.4478C26.9212 24.1879 28.5713 26.4162 28.5713 28.9435V31.3742C28.5713 31.7194 28.2915 31.9992 27.9463 31.9992H11.4783C11.1331 31.9992 10.8533 31.7194 10.8533 31.3742C10.8533 31.029 11.1331 30.7492 11.4783 30.7492H27.3213V28.9435Z" fill="#EDE8EB"/>
<path d="M17.6351 21.5815C17.8792 21.3374 18.275 21.3374 18.5191 21.5815C18.7631 21.8256 18.7631 22.2213 18.5191 22.4654L16.0975 24.887C15.8534 25.131 15.4577 25.131 15.2136 24.887L12.792 22.4654L12.7698 22.4421C12.5482 22.1967 12.5556 21.8179 12.792 21.5815C13.0285 21.345 13.4073 21.3377 13.6526 21.5593L13.6759 21.5815L15.6555 23.5611L17.6351 21.5815Z" fill="#EDE8EB"/>
<path d="M19.6507 22.6119C19.7745 22.2897 20.1361 22.1289 20.4583 22.2527C20.7805 22.3765 20.9413 22.7381 20.8175 23.0603L19.3344 26.9194C19.2648 27.1008 19.1147 27.2394 18.9284 27.2946C18.7422 27.3497 18.5409 27.3151 18.3837 27.2009L15.2881 24.9519L15.2626 24.9323C15.0053 24.7246 14.9533 24.3493 15.1499 24.0788C15.3464 23.8083 15.7194 23.7418 15.9964 23.9223L16.0229 23.9406L18.4597 25.711L19.6507 22.6119Z" fill="#EDE8EB"/>
<path d="M10.8527 22.2527C11.1648 22.1328 11.5139 22.28 11.648 22.5822L11.6603 22.6119L12.8512 25.7111L15.2881 23.9406L15.3146 23.9224C15.5916 23.7418 15.9646 23.8083 16.1612 24.0789C16.3641 24.3581 16.3021 24.749 16.0229 24.9519L12.9272 27.2009C12.7701 27.3151 12.5687 27.3498 12.3825 27.2946C12.1962 27.2395 12.0462 27.1008 11.9765 26.9195L10.4934 23.0603L10.4827 23.03C10.3799 22.7157 10.5406 22.3726 10.8527 22.2527Z" fill="#EDE8EB"/>
<path d="M13.3418 31.3744V25.6595C13.3418 25.4584 13.4386 25.2695 13.6019 25.1521L15.2905 23.9379C15.5708 23.7364 15.9613 23.8002 16.1628 24.0805C16.3644 24.3607 16.3005 24.7513 16.0203 24.9528L14.5918 25.9799V31.3744C14.5918 31.7195 14.312 31.9994 13.9668 31.9994C13.6216 31.9994 13.3418 31.7195 13.3418 31.3744Z" fill="#EDE8EB"/>
<path d="M16.719 31.3744V25.9799L15.2906 24.9528L15.2649 24.9334C15.0066 24.727 14.9528 24.352 15.148 24.0805C15.3432 23.809 15.7159 23.7406 15.9938 23.9198L16.0203 23.9379L17.7089 25.1521C17.8722 25.2695 17.969 25.4584 17.969 25.6595V31.3744C17.969 31.7196 17.6891 31.9994 17.344 31.9994C16.9988 31.9994 16.719 31.7196 16.719 31.3744Z" fill="#EDE8EB"/>
<path d="M9.67084 15.5189V11.3906C9.67084 11.0454 9.95066 10.7656 10.2958 10.7656C10.641 10.7656 10.9208 11.0454 10.9208 11.3906V15.5189C10.9208 18.1337 13.0406 20.2535 15.6555 20.2535C18.2703 20.2535 20.3901 18.1337 20.3901 15.5189V11.3906C20.3901 11.0455 20.6699 10.7656 21.0151 10.7656C21.3603 10.7656 21.6401 11.0454 21.6401 11.3906V15.5189C21.6401 18.8241 18.9607 21.5035 15.6555 21.5035C12.3502 21.5035 9.67084 18.8241 9.67084 15.5189Z" fill="#EDE8EB"/>
<path d="M15.4125 0.0492936C15.568 -0.0164328 15.7435 -0.0164297 15.899 0.0492936L27.504 4.95347C27.7354 5.05124 27.8857 5.278 27.8857 5.52915C27.8857 5.78032 27.7354 6.00712 27.504 6.1049L21.9289 8.46091C21.6109 8.59528 21.2442 8.44647 21.1099 8.12852C20.9755 7.81057 21.1244 7.44391 21.4423 7.30955L25.6551 5.52915L15.6558 1.30344L5.65643 5.52915L9.84937 7.30106C10.1673 7.43543 10.3162 7.80214 10.1818 8.12009C10.0475 8.43804 9.68074 8.58686 9.36279 8.45249L3.80756 6.1049C3.5762 6.00713 3.42584 5.78032 3.42584 5.52915C3.42585 5.27799 3.5762 5.05124 3.80756 4.95347L15.4125 0.0492936Z" fill="#EDE8EB"/>
<path d="M15.4714 5.4027C15.5913 5.36577 15.7196 5.36577 15.8395 5.4027L21.8496 7.2542C22.1117 7.33497 22.2906 7.5772 22.2906 7.85149L22.2905 11.3011C22.2905 11.4987 22.197 11.6847 22.0383 11.8027C21.8797 11.9206 21.6746 11.9565 21.4853 11.8995C21.0168 11.7585 20.5206 11.6818 20.0059 11.6818C18.4566 11.6818 17.0692 12.3698 16.1284 13.4585C16.0096 13.5959 15.837 13.6749 15.6555 13.6749C15.4739 13.6749 15.3013 13.5959 15.1826 13.4585C14.2417 12.3697 12.8542 11.6818 11.3049 11.6818C10.7902 11.6818 10.294 11.7585 9.82544 11.8995C9.63617 11.9565 9.4311 11.9206 9.27246 11.8027C9.11383 11.6847 9.02033 11.4987 9.02032 11.3011V7.85149C9.02032 7.5772 9.19917 7.33496 9.4613 7.2542L15.4714 5.4027ZM10.2703 8.31292V10.5161C10.607 10.4608 10.9526 10.4318 11.3049 10.4318C12.9876 10.4318 14.5172 11.0852 15.6555 12.1495C16.7936 11.0853 18.3232 10.4318 20.0059 10.4318C20.3582 10.4318 20.7038 10.4607 21.0405 10.516V8.31292L15.6555 6.65392L10.2703 8.31292Z" fill="#EDE8EB"/>
<path d="M26.6354 9.42242V5.53125C26.6354 5.18607 26.9152 4.90625 27.2604 4.90625C27.6056 4.90625 27.8854 5.18607 27.8854 5.53125V9.42242C27.8854 9.7676 27.6056 10.0474 27.2604 10.0474C26.9152 10.0474 26.6354 9.7676 26.6354 9.42242Z" fill="#EDE8EB"/>
<path d="M28.0104 11.5C28.0104 11.0858 27.6746 10.75 27.2604 10.75C26.8462 10.75 26.5104 11.0858 26.5104 11.5V17.2004H28.0104V11.5ZM29.2604 17.8254C29.2604 18.1706 28.9806 18.4504 28.6354 18.4504H25.8854C25.5402 18.4504 25.2604 18.1706 25.2604 17.8254V11.5C25.2604 10.3954 26.1558 9.5 27.2604 9.5C28.3649 9.5 29.2604 10.3954 29.2604 11.5V17.8254Z" fill="#EDE8EB"/>
<path d="M28.6353 12.1875C28.9805 12.1875 29.2603 12.4673 29.2603 12.8125C29.2603 13.1577 28.9805 13.4375 28.6353 13.4375H25.8853C25.5401 13.4375 25.2603 13.1577 25.2603 12.8125C25.2603 12.4673 25.5401 12.1875 25.8853 12.1875H28.6353Z" fill="#EDE8EB"/>
<path d="M16.3563 16.3868C16.5656 16.1123 16.9578 16.0593 17.2323 16.2685C17.5069 16.4778 17.5598 16.87 17.3506 17.1445C16.9624 17.6539 16.3473 17.9844 15.6553 17.9844C14.9633 17.9844 14.3483 17.6538 13.9602 17.1445C13.7509 16.87 13.8039 16.4778 14.0784 16.2686C14.3529 16.0594 14.7451 16.1123 14.9543 16.3868C15.1162 16.5993 15.3699 16.7344 15.6553 16.7344C15.9409 16.7344 16.1945 16.5992 16.3563 16.3868Z" fill="#EDE8EB"/>
<path d="M9.29077 31.375C9.29077 31.7202 9.01095 32 8.66577 32C8.32059 32 8.04077 31.7202 8.04077 31.375C8.04077 31.0298 8.32059 30.75 8.66577 30.75C9.01095 30.75 9.29077 31.0298 9.29077 31.375Z" fill="#EDE8EB"/>
</svg>
