<svg width="37" height="37" viewBox="0 0 37 37" fill="none" xmlns="http://www.w3.org/2000/svg">
<path opacity="0.25" fill-rule="evenodd" clip-rule="evenodd" d="M18.25 35.75C27.915 35.75 35.75 27.915 35.75 18.25C35.75 8.58502 27.915 0.75 18.25 0.75C8.58502 0.75 0.75 8.58502 0.75 18.25C0.75 27.915 8.58502 35.75 18.25 35.75Z" stroke="white" stroke-width="1.5"/>
<g clip-path="url(#clip0_1_9262)">
<path d="M25.5689 10.75H11.9311C11.6179 10.75 11.3174 10.8744 11.0959 11.0959C10.8744 11.3174 10.75 11.6179 10.75 11.9311V25.5689C10.75 25.8821 10.8744 26.1826 11.0959 26.4041C11.3174 26.6256 11.6179 26.75 11.9311 26.75H25.5689C25.8821 26.75 26.1826 26.6256 26.4041 26.4041C26.6256 26.1826 26.75 25.8821 26.75 25.5689V11.9311C26.75 11.6179 26.6256 11.3174 26.4041 11.0959C26.1826 10.8744 25.8821 10.75 25.5689 10.75ZM15.5189 24.38H13.1133V16.7389H15.5189V24.38ZM14.3144 15.68C14.0416 15.6785 13.7753 15.5961 13.5492 15.4434C13.323 15.2907 13.1472 15.0744 13.0439 14.8218C12.9406 14.5692 12.9144 14.2917 12.9687 14.0243C13.0229 13.7569 13.1552 13.5115 13.3488 13.3192C13.5423 13.1269 13.7885 12.9962 14.0563 12.9436C14.3241 12.8911 14.6014 12.9191 14.8533 13.024C15.1052 13.1289 15.3204 13.3061 15.4716 13.5332C15.6229 13.7603 15.7035 14.0271 15.7033 14.3C15.7059 14.4827 15.6717 14.664 15.6027 14.8332C15.5337 15.0024 15.4313 15.1559 15.3017 15.2847C15.1721 15.4135 15.0179 15.5149 14.8483 15.5828C14.6787 15.6507 14.4971 15.6837 14.3144 15.68ZM24.3856 24.3867H21.9811V20.2122C21.9811 18.9811 21.4578 18.6011 20.7822 18.6011C20.0689 18.6011 19.3689 19.1389 19.3689 20.2433V24.3867H16.9633V16.7444H19.2767V17.8033H19.3078C19.54 17.3333 20.3533 16.53 21.5944 16.53C22.9367 16.53 24.3867 17.3267 24.3867 19.66L24.3856 24.3867Z" fill="white"/>
</g>
<defs>
<clipPath id="clip0_1_9262">
<rect width="16" height="16" fill="white" transform="translate(10.75 10.75)"/>
</clipPath>
</defs>
</svg>
