<svg width="37" height="37" viewBox="0 0 37 37" fill="none" xmlns="http://www.w3.org/2000/svg">
<path opacity="0.25" fill-rule="evenodd" clip-rule="evenodd" d="M18.25 35.75C27.915 35.75 35.75 27.915 35.75 18.25C35.75 8.58502 27.915 0.75 18.25 0.75C8.58502 0.75 0.75 8.58502 0.75 18.25C0.75 27.915 8.58502 35.75 18.25 35.75Z" stroke="white" stroke-width="1.5"/>
<g clip-path="url(#clip0_1_9256)">
<path d="M18.75 12.1918C20.8874 12.1918 21.1383 12.2014 21.983 12.2395C22.7643 12.2744 23.1867 12.4046 23.4693 12.5158C23.8441 12.6619 24.1109 12.8334 24.3903 13.1128C24.6698 13.3923 24.8445 13.6591 24.9874 14.0338C25.0954 14.3165 25.2288 14.7389 25.2637 15.5201C25.3018 16.3649 25.3113 16.6158 25.3113 18.7532C25.3113 20.8905 25.3018 21.1414 25.2637 21.9862C25.2288 22.7675 25.0986 23.1899 24.9874 23.4725C24.8413 23.8473 24.6698 24.114 24.3903 24.3935C24.1109 24.673 23.8441 24.8477 23.4693 24.9906C23.1867 25.0986 22.7643 25.2319 21.983 25.2669C21.1383 25.305 20.8874 25.3145 18.75 25.3145C16.6126 25.3145 16.3618 25.305 15.517 25.2669C14.7357 25.2319 14.3133 25.1017 14.0307 24.9906C13.6559 24.8445 13.3891 24.673 13.1097 24.3935C12.8302 24.114 12.6555 23.8473 12.5126 23.4725C12.4046 23.1899 12.2712 22.7675 12.2363 21.9862C12.1982 21.1414 12.1887 20.8905 12.1887 18.7532C12.1887 16.6158 12.1982 16.3649 12.2363 15.5201C12.2712 14.7389 12.4015 14.3165 12.5126 14.0338C12.6587 13.6591 12.8302 13.3923 13.1097 13.1128C13.3891 12.8334 13.6559 12.6587 14.0307 12.5158C14.3133 12.4078 14.7357 12.2744 15.517 12.2395C16.3618 12.1982 16.6158 12.1918 18.75 12.1918ZM18.75 10.75C16.5777 10.75 16.3046 10.7595 15.4503 10.7976C14.5991 10.8357 14.018 10.9723 13.5098 11.1692C12.9826 11.3725 12.538 11.6488 12.0934 12.0934C11.6488 12.538 11.3756 12.9858 11.1692 13.5098C10.9723 14.018 10.8357 14.5991 10.7976 15.4535C10.7595 16.3046 10.75 16.5777 10.75 18.75C10.75 20.9223 10.7595 21.1954 10.7976 22.0497C10.8357 22.9009 10.9723 23.482 11.1692 23.9934C11.3725 24.5205 11.6488 24.9652 12.0934 25.4098C12.538 25.8544 12.9858 26.1275 13.5098 26.334C14.018 26.5309 14.5991 26.6674 15.4535 26.7055C16.3078 26.7436 16.5777 26.7532 18.7532 26.7532C20.9286 26.7532 21.1986 26.7436 22.0529 26.7055C22.904 26.6674 23.4852 26.5309 23.9965 26.334C24.5237 26.1307 24.9684 25.8544 25.413 25.4098C25.8576 24.9652 26.1307 24.5174 26.3371 23.9934C26.5341 23.4852 26.6706 22.904 26.7087 22.0497C26.7468 21.1954 26.7564 20.9255 26.7564 18.75C26.7564 16.5745 26.7468 16.3046 26.7087 15.4503C26.6706 14.5991 26.5341 14.018 26.3371 13.5066C26.1339 12.9795 25.8576 12.5348 25.413 12.0902C24.9684 11.6456 24.5206 11.3725 23.9965 11.166C23.4884 10.9691 22.9072 10.8326 22.0529 10.7945C21.1954 10.7595 20.9223 10.75 18.75 10.75Z" fill="white"/>
<path d="M18.75 12.1918C20.8874 12.1918 21.1383 12.2014 21.983 12.2395C22.7643 12.2744 23.1867 12.4046 23.4693 12.5158C23.8441 12.6619 24.1109 12.8334 24.3903 13.1128C24.6698 13.3923 24.8445 13.6591 24.9874 14.0338C25.0954 14.3165 25.2288 14.7389 25.2637 15.5201C25.3018 16.3649 25.3113 16.6158 25.3113 18.7532C25.3113 20.8905 25.3018 21.1414 25.2637 21.9862C25.2288 22.7675 25.0986 23.1899 24.9874 23.4725C24.8413 23.8473 24.6698 24.114 24.3903 24.3935C24.1109 24.673 23.8441 24.8477 23.4693 24.9906C23.1867 25.0986 22.7643 25.2319 21.983 25.2669C21.1383 25.305 20.8874 25.3145 18.75 25.3145C16.6126 25.3145 16.3618 25.305 15.517 25.2669C14.7357 25.2319 14.3133 25.1017 14.0307 24.9906C13.6559 24.8445 13.3891 24.673 13.1097 24.3935C12.8302 24.114 12.6555 23.8473 12.5126 23.4725C12.4046 23.1899 12.2712 22.7675 12.2363 21.9862C12.1982 21.1414 12.1887 20.8905 12.1887 18.7532C12.1887 16.6158 12.1982 16.3649 12.2363 15.5201C12.2712 14.7389 12.4015 14.3165 12.5126 14.0338C12.6587 13.6591 12.8302 13.3923 13.1097 13.1128C13.3891 12.8334 13.6559 12.6587 14.0307 12.5158C14.3133 12.4078 14.7357 12.2744 15.517 12.2395C16.3618 12.1982 16.6158 12.1918 18.75 12.1918Z" fill="white"/>
<path d="M18.75 14.6436C16.4824 14.6436 14.6404 16.4824 14.6404 18.7531C14.6404 21.0239 16.4793 22.8627 18.75 22.8627C21.0207 22.8627 22.8596 21.0239 22.8596 18.7531C22.8596 16.4824 21.0207 14.6436 18.75 14.6436ZM18.75 21.4177C17.2764 21.4177 16.0823 20.2235 16.0823 18.7499C16.0823 17.2763 17.2764 16.0822 18.75 16.0822C20.2236 16.0822 21.4177 17.2763 21.4177 18.7499C21.4177 20.2235 20.2236 21.4177 18.75 21.4177Z" fill="black"/>
<path d="M23.0215 15.4378C23.5512 15.4378 23.9806 15.0083 23.9806 14.4786C23.9806 13.9489 23.5512 13.5195 23.0215 13.5195C22.4918 13.5195 22.0624 13.9489 22.0624 14.4786C22.0624 15.0083 22.4918 15.4378 23.0215 15.4378Z" fill="black"/>
</g>
<defs>
<clipPath id="clip0_1_9256">
<rect width="16" height="16" fill="white" transform="translate(10.75 10.75)"/>
</clipPath>
</defs>
</svg>
