<svg width="20" height="20" viewBox="0 0 20 20" fill="none" xmlns="http://www.w3.org/2000/svg">
<path d="M3.11753 4.8105C3.24324 4.8105 3.33538 4.79371 3.45253 4.70157L6.25646 2.58371C6.39896 2.48371 6.47431 2.34942 6.47431 2.20728C6.47431 2.03157 6.39039 1.88942 6.24824 1.75514C5.93039 1.4705 5.36074 1.31157 4.85896 1.31157C4.54952 1.30967 4.24279 1.36921 3.95654 1.48674C3.67029 1.60427 3.41021 1.77745 3.19139 1.99624C2.97256 2.21504 2.79934 2.47508 2.68177 2.76132C2.5642 3.04755 2.50461 3.35428 2.50646 3.66371C2.50646 3.97335 2.55681 4.283 2.64038 4.4755C2.73253 4.68478 2.91681 4.8105 3.11753 4.8105ZM16.8704 4.8105C17.0797 4.8105 17.2472 4.67657 17.3475 4.4755C17.4397 4.29157 17.4897 3.97335 17.4897 3.66371C17.4897 2.358 16.4432 1.31157 15.1293 1.31157C14.6354 1.31157 14.0665 1.4705 13.7482 1.75514C13.6057 1.88907 13.5222 2.03157 13.5222 2.20728C13.5222 2.34942 13.5975 2.48335 13.7315 2.58371L16.5357 4.70157C16.6529 4.79371 16.745 4.8105 16.8704 4.8105ZM2.99181 18.4294C3.05254 18.4914 3.12515 18.5405 3.20531 18.5738C3.28546 18.607 3.37151 18.6237 3.45828 18.6229C3.54506 18.6221 3.63078 18.6038 3.7103 18.5691C3.78983 18.5344 3.86153 18.484 3.9211 18.4209L5.2436 17.1066C6.61994 18.1241 8.28659 18.673 9.99824 18.6723C11.7811 18.6723 13.4218 18.0866 14.7525 17.1073L16.0754 18.4216C16.3347 18.6894 16.745 18.6894 16.9961 18.4298C17.239 18.1869 17.2472 17.7769 16.9875 17.5255L15.7154 16.2616C17.1827 14.7707 18.0036 12.7619 18.0004 10.6701C18.0004 6.25014 14.4179 2.65907 9.99824 2.65907C5.5786 2.65907 1.9961 6.25014 1.9961 10.6698C1.99374 12.7598 2.81121 14.7673 4.27288 16.2612L3.00038 17.5255C2.74931 17.7766 2.74931 18.1862 2.99217 18.4291M9.99824 17.2409C6.36538 17.2409 3.41896 14.3026 3.41896 10.6698C3.41896 7.0455 6.36538 4.09907 9.99824 4.09907C13.6225 4.09907 16.5607 7.0455 16.5607 10.6698C16.5607 14.3026 13.6225 17.2409 9.99824 17.2409ZM6.18967 11.5909H9.98967C10.3165 11.5909 10.5757 11.3394 10.5757 11.013V5.9405C10.5762 5.86345 10.5614 5.78707 10.5321 5.71579C10.5029 5.64452 10.4597 5.57976 10.4052 5.52528C10.3508 5.47079 10.286 5.42767 10.2147 5.3984C10.1435 5.36913 10.0671 5.35431 9.99003 5.35478C9.66324 5.35478 9.41217 5.61407 9.41217 5.9405V10.4269H6.18967C5.85467 10.4269 5.60396 10.6866 5.60396 11.0126C5.60396 11.3394 5.85467 11.5909 6.18967 11.5909Z" fill="#EDE8EB"/>
</svg>
