<svg width="30" height="30" viewBox="0 0 30 30" fill="none" xmlns="http://www.w3.org/2000/svg">
<rect width="30" height="30" rx="12" fill="#F9F9F9" fill-opacity="0.2"/>
<path d="M9.49548 10.8485C9.59606 10.8485 9.66977 10.8351 9.76348 10.7614L12.0066 9.06707C12.1206 8.98707 12.1809 8.87964 12.1809 8.76592C12.1809 8.62535 12.1138 8.51164 12.0001 8.40421C11.7458 8.17649 11.2901 8.04935 10.8886 8.04935C10.6411 8.04783 10.3957 8.09547 10.1667 8.18949C9.93769 8.28352 9.72963 8.42206 9.55457 8.59709C9.37951 8.77213 9.24094 8.98017 9.14688 9.20915C9.05282 9.43814 9.00515 9.68352 9.00663 9.93107C9.00663 10.1788 9.04691 10.4265 9.11377 10.5805C9.18748 10.7479 9.33491 10.8485 9.49548 10.8485ZM20.4978 10.8485C20.6652 10.8485 20.7992 10.7414 20.8795 10.5805C20.9532 10.4334 20.9932 10.1788 20.9932 9.93107C20.9932 8.88649 20.1561 8.04935 19.1049 8.04935C18.7098 8.04935 18.2546 8.17649 18.0001 8.40421C17.8861 8.51135 17.8192 8.62535 17.8192 8.76592C17.8192 8.87964 17.8795 8.98678 17.9866 9.06707L20.2301 10.7614C20.3238 10.8351 20.3975 10.8485 20.4978 10.8485ZM9.39491 21.7436C9.44349 21.7932 9.50158 21.8325 9.56571 21.8591C9.62983 21.8857 9.69867 21.8991 9.76809 21.8985C9.83751 21.8978 9.90608 21.8832 9.96971 21.8554C10.0333 21.8276 10.0907 21.7873 10.1383 21.7368L11.1963 20.6853C12.2974 21.4994 13.6307 21.9385 15.0001 21.9379C16.4263 21.9379 17.7389 21.4694 18.8035 20.6859L19.8618 21.7374C20.0692 21.9516 20.3975 21.9516 20.5983 21.7439C20.7926 21.5496 20.7992 21.2216 20.5915 21.0205L19.5738 20.0094C20.7476 18.8167 21.4044 17.2096 21.4018 15.5362C21.4018 12.0002 18.5358 9.12735 15.0001 9.12735C11.4643 9.12735 8.59834 12.0002 8.59834 15.5359C8.59646 17.2079 9.25043 18.814 10.4198 20.0091L9.40177 21.0205C9.20091 21.2213 9.20091 21.5491 9.3952 21.7434M15.0001 20.7928C12.0938 20.7928 9.73663 18.4422 9.73663 15.5359C9.73663 12.6365 12.0938 10.2794 15.0001 10.2794C17.8995 10.2794 20.2501 12.6365 20.2501 15.5359C20.2501 18.4422 17.8995 20.7928 15.0001 20.7928ZM11.9532 16.2728H14.9932C15.2546 16.2728 15.4621 16.0716 15.4621 15.8105V11.7525C15.4624 11.6909 15.4506 11.6298 15.4272 11.5727C15.4037 11.5157 15.3692 11.4639 15.3257 11.4203C15.2821 11.3767 15.2303 11.3422 15.1732 11.3188C15.1162 11.2954 15.0551 11.2835 14.9935 11.2839C14.7321 11.2839 14.5312 11.4914 14.5312 11.7525V15.3416H11.9532C11.6852 15.3416 11.4846 15.5494 11.4846 15.8102C11.4846 16.0716 11.6852 16.2728 11.9532 16.2728Z" fill="#F9F9F9"/>
</svg>
