<svg width="56" height="56" viewBox="0 0 56 56" fill="none" xmlns="http://www.w3.org/2000/svg">
<g opacity="0.1" filter="url(#filter0_d_1_4459)">
<rect x="5.5" y="2" width="45" height="45" rx="12" fill="#1F0047"/>
</g>
<path d="M36.625 18.5313H29.955L29.0093 15.6928C28.8665 15.2633 28.592 14.8898 28.2249 14.6252C27.8577 14.3606 27.4166 14.2184 26.964 14.2188H19.375C18.8033 14.2194 18.2553 14.4468 17.851 14.851C17.4468 15.2553 17.2194 15.8033 17.2188 16.375V33.625C17.2194 34.1967 17.4468 34.7448 17.851 35.149C18.2553 35.5532 18.8033 35.7806 19.375 35.7813H36.625C37.1967 35.7806 37.7447 35.5532 38.149 35.149C38.5532 34.7448 38.7806 34.1967 38.7812 33.625V20.6875C38.7806 20.1158 38.5532 19.5678 38.149 19.1635C37.7447 18.7593 37.1967 18.5319 36.625 18.5313ZM37.3438 33.625C37.3438 33.8156 37.268 33.9984 37.1332 34.1332C36.9984 34.268 36.8156 34.3438 36.625 34.3438H19.375C19.1844 34.3438 19.0016 34.268 18.8668 34.1332C18.732 33.9984 18.6562 33.8156 18.6562 33.625V30.0313H37.3438V33.625ZM21.5312 28.5938V25C21.5312 24.8094 21.607 24.6266 21.7418 24.4918C21.8766 24.357 22.0594 24.2813 22.25 24.2813H33.75C33.9406 24.2813 34.1234 24.357 34.2582 24.4918C34.393 24.6266 34.4688 24.8094 34.4688 25V28.5938H21.5312ZM37.3438 28.5938H35.9062V25C35.9056 24.4283 35.6782 23.8803 35.274 23.476C34.8697 23.0718 34.3217 22.8444 33.75 22.8438H22.25C21.6783 22.8444 21.1303 23.0718 20.726 23.476C20.3218 23.8803 20.0944 24.4283 20.0938 25V28.5938H18.6562V16.375C18.6562 16.1844 18.732 16.0016 18.8668 15.8668C19.0016 15.732 19.1844 15.6563 19.375 15.6563H26.964C27.1149 15.6562 27.262 15.7036 27.3844 15.7918C27.5069 15.8799 27.5985 16.0044 27.6462 16.1476L28.756 19.4774C28.8037 19.6204 28.8952 19.7449 29.0175 19.833C29.1398 19.9212 29.2867 19.9687 29.4375 19.9688H36.625C36.8156 19.9688 36.9984 20.0445 37.1332 20.1793C37.268 20.3141 37.3438 20.4969 37.3438 20.6875V28.5938Z" fill="#1F0047"/>
<defs>
<filter id="filter0_d_1_4459" x="-4.76837e-07" y="-2.38419e-07" width="56" height="56" filterUnits="userSpaceOnUse" color-interpolation-filters="sRGB">
<feFlood flood-opacity="0" result="BackgroundImageFix"/>
<feColorMatrix in="SourceAlpha" type="matrix" values="0 0 0 0 0 0 0 0 0 0 0 0 0 0 0 0 0 0 127 0" result="hardAlpha"/>
<feOffset dy="3.5"/>
<feGaussianBlur stdDeviation="2.75"/>
<feColorMatrix type="matrix" values="0 0 0 0 0 0 0 0 0 0 0 0 0 0 0 0 0 0 0.02 0"/>
<feBlend mode="normal" in2="BackgroundImageFix" result="effect1_dropShadow_1_4459"/>
<feBlend mode="normal" in="SourceGraphic" in2="effect1_dropShadow_1_4459" result="shape"/>
</filter>
</defs>
</svg>
