<svg width="24" height="24" viewBox="0 0 24 24" fill="none" xmlns="http://www.w3.org/2000/svg">
<path d="M12.0225 2.90967C8.71253 2.90967 6.02253 5.59967 6.02253 8.90967V11.7997C6.02253 12.4097 5.76253 13.3397 5.45253 13.8597L4.30253 15.7697C3.59253 16.9497 4.08253 18.2597 5.38253 18.6997C9.69253 20.1397 14.3425 20.1397 18.6525 18.6997C19.8625 18.2997 20.3925 16.8697 19.7325 15.7697L18.5825 13.8597C18.2825 13.3397 18.0225 12.4097 18.0225 11.7997V8.90967C18.0225 5.60967 15.3225 2.90967 12.0225 2.90967Z" stroke="#1F0D19" stroke-width="1.5" stroke-miterlimit="10" stroke-linecap="round"/>
<path d="M13.8719 3.19994C13.5619 3.10994 13.2419 3.03994 12.9119 2.99994C11.9519 2.87994 11.0319 2.94994 10.1719 3.19994C10.4619 2.45994 11.1819 1.93994 12.0219 1.93994C12.8619 1.93994 13.5819 2.45994 13.8719 3.19994Z" stroke="#1F0D19" stroke-width="1.5" stroke-miterlimit="10" stroke-linecap="round" stroke-linejoin="round"/>
<path d="M15.0234 19.0601C15.0234 20.7101 13.6734 22.0601 12.0234 22.0601C11.2034 22.0601 10.4434 21.7201 9.90344 21.1801C9.36344 20.6401 9.02344 19.8801 9.02344 19.0601" stroke="#1F0D19" stroke-width="1.5" stroke-miterlimit="10"/>
<circle cx="19" cy="4" r="4" fill="#D67252"/>
</svg>
