<svg width="16" height="16" viewBox="0 0 16 16" fill="none" xmlns="http://www.w3.org/2000/svg">
<g clip-path="url(#clip0_1_2923)">
<path d="M13.9282 3.82412H10.5516C10.2933 3.82412 10.0838 3.61469 10.0838 3.35631V0H2.06809C1.80975 0 1.60028 0.209433 1.60028 0.467806V15.5322C1.60028 15.7906 1.80971 16 2.06809 16H11.9887L9.9506 13.9619C9.55771 14.1177 9.1297 14.2033 8.68202 14.2033C8.28562 14.2033 7.90468 14.136 7.54983 14.0124H4.10109C3.84275 14.0124 3.63328 13.803 3.63328 13.5446C3.63328 13.2863 3.84271 13.0768 4.10109 13.0768H6.13296C5.88742 12.808 5.68374 12.5003 5.53235 12.1642H4.10112C3.84278 12.1642 3.63331 11.9547 3.63331 11.6964C3.63331 11.438 3.84275 11.2286 4.10112 11.2286H5.26281C5.24109 11.0724 5.22961 10.9129 5.22961 10.7508C5.22961 10.6036 5.23894 10.4584 5.25693 10.316H4.10112C3.84278 10.316 3.63331 10.1065 3.63331 9.84815C3.63331 9.58981 3.84275 9.38034 4.10112 9.38034H5.51361C5.65905 9.04537 5.8561 8.73784 6.09469 8.46773H4.10112C3.84278 8.46773 3.63331 8.2583 3.63331 7.99992C3.63331 7.74158 3.84275 7.53212 4.10112 7.53212H7.43343C7.82085 7.38129 8.24194 7.29837 8.68205 7.29837C9.12216 7.29837 9.54325 7.38129 9.93067 7.53212H11.4888C11.7471 7.53212 11.9566 7.74155 11.9566 7.99992C11.9566 8.25826 11.7472 8.46773 11.4888 8.46773H11.2694C11.8074 9.07672 12.1345 9.87625 12.1345 10.7508C12.1345 11.1985 12.0488 11.6265 11.893 12.0194L13.9378 14.0641V3.91756C13.9377 3.88598 13.9345 3.85469 13.9282 3.82412ZM4.10109 1.9876H8.07509C8.33343 1.9876 8.5429 2.19703 8.5429 2.4554C8.5429 2.71378 8.33346 2.92321 8.07509 2.92321H4.10109C3.84275 2.92321 3.63328 2.71378 3.63328 2.4554C3.63328 2.19703 3.84275 1.9876 4.10109 1.9876ZM4.10109 3.83579H8.07509C8.33343 3.83579 8.5429 4.04522 8.5429 4.3036C8.5429 4.56197 8.33346 4.7714 8.07509 4.7714H4.10109C3.84275 4.7714 3.63328 4.56197 3.63328 4.3036C3.63328 4.04522 3.84275 3.83579 4.10109 3.83579ZM11.4342 6.6196H4.10109C3.84275 6.6196 3.63328 6.41016 3.63328 6.15179C3.63328 5.89345 3.84271 5.68398 4.10109 5.68398H11.4342C11.6925 5.68398 11.902 5.89342 11.902 6.15179C11.902 6.41016 11.6925 6.6196 11.4342 6.6196Z" fill="#F9F9F9"/>
<path d="M11.0194 0.804688V2.88766H13.1024L11.0194 0.804688Z" fill="#F9F9F9"/>
<path d="M11.4123 12.8633C11.2328 13.0949 11.0246 13.3031 10.793 13.4826L13.0992 15.7889C13.27 15.9596 13.5478 15.9596 13.7186 15.7889C13.8893 15.6181 13.8893 15.3403 13.7186 15.1695L11.4123 12.8633Z" fill="#F9F9F9"/>
<path d="M8.68223 13.268C10.0722 13.268 11.1991 12.1412 11.1991 10.7512C11.1991 9.3612 10.0722 8.23438 8.68223 8.23438C7.29223 8.23438 6.16541 9.3612 6.16541 10.7512C6.16541 12.1412 7.29223 13.268 8.68223 13.268Z" fill="#F9F9F9"/>
</g>
<defs>
<clipPath id="clip0_1_2923">
<rect width="16" height="16" fill="white"/>
</clipPath>
</defs>
</svg>
