<svg width="30" height="30" viewBox="0 0 30 30" fill="none" xmlns="http://www.w3.org/2000/svg">
<rect width="30" height="30" rx="12" fill="#F9F9F9" fill-opacity="0.2"/>
<mask id="path-2-inside-1_341_975" fill="white">
<path d="M18.1678 21.5454L20.3841 21.5454C21.3019 21.5454 22.0457 20.7954 22.0457 19.8698L22.0457 17.6348C22.0457 16.7092 21.3019 15.9592 20.3841 15.9592L18.1678 15.9592C17.25 15.9592 16.5063 16.7092 16.5063 17.6348L16.5063 19.8698C16.5063 20.7954 17.25 21.5454 18.1678 21.5454Z"/>
</mask>
<path d="M18.1678 21.5454L20.3841 21.5454C21.3019 21.5454 22.0457 20.7954 22.0457 19.8698L22.0457 17.6348C22.0457 16.7092 21.3019 15.9592 20.3841 15.9592L18.1678 15.9592C17.25 15.9592 16.5063 16.7092 16.5063 17.6348L16.5063 19.8698C16.5063 20.7954 17.25 21.5454 18.1678 21.5454Z" fill="#F9F9F9"/>
<path d="M18.1678 21.5454L18.1678 20.0454L20.3841 20.0454L20.3841 21.5454L20.3841 23.0454L18.1678 23.0454L18.1678 21.5454ZM20.3841 21.5454L20.3841 20.0454C20.4617 20.0454 20.5457 19.9789 20.5457 19.8698L22.0457 19.8698L23.5457 19.8698C23.5457 21.6119 22.1422 23.0454 20.3841 23.0454L20.3841 21.5454ZM22.0457 19.8698L20.5457 19.8698L20.5457 17.6348L22.0457 17.6348L23.5457 17.6348L23.5457 19.8698L22.0457 19.8698ZM22.0457 17.6348L20.5457 17.6348C20.5457 17.5257 20.4617 17.4592 20.3841 17.4592L20.3841 15.9592L20.3841 14.4592C22.1422 14.4592 23.5457 15.8927 23.5457 17.6348L22.0457 17.6348ZM20.3841 15.9592L20.3841 17.4592L18.1678 17.4592L18.1678 15.9592L18.1678 14.4592L20.3841 14.4592L20.3841 15.9592ZM18.1678 15.9592L18.1678 17.4592C18.0903 17.4592 18.0063 17.5257 18.0063 17.6348L16.5063 17.6348L15.0063 17.6348C15.0063 15.8927 16.4097 14.4592 18.1678 14.4592L18.1678 15.9592ZM16.5063 17.6348L18.0063 17.6348L18.0063 19.8698L16.5063 19.8698L15.0063 19.8698L15.0063 17.6348L16.5063 17.6348ZM16.5063 19.8698L18.0063 19.8698C18.0063 19.9789 18.0903 20.0454 18.1678 20.0454L18.1678 21.5454L18.1678 23.0454C16.4097 23.0454 15.0063 21.6119 15.0063 19.8698L16.5063 19.8698Z" fill="#F9F9F9" mask="url(#path-2-inside-1_341_975)"/>
<mask id="path-4-inside-2_341_975" fill="white">
<path d="M12.8327 14.0405C13.7505 14.0405 14.4938 13.2903 14.4938 12.3647L14.4938 10.1304C14.4938 9.20543 13.7505 8.45464 12.8327 8.45459L10.6159 8.45459C9.69826 8.45483 8.95477 9.20555 8.95477 10.1304L8.95477 12.3647C8.95477 13.2902 9.69826 14.0403 10.6159 14.0405L12.8327 14.0405ZM20.3845 14.0405C21.3021 14.0403 22.0456 13.2902 22.0456 12.3647L22.0456 10.1304C22.0456 9.20552 21.3021 8.45478 20.3845 8.45459L18.1677 8.45459C17.2499 8.45468 16.5065 9.20546 16.5065 10.1304L16.5065 12.3647C16.5065 13.2903 17.2499 14.0404 18.1677 14.0405L20.3845 14.0405ZM12.8327 21.5454C13.7505 21.5454 14.4938 20.7952 14.4938 19.8696L14.4938 17.6353C14.4938 16.7097 13.7505 15.9595 12.8327 15.9595L10.6159 15.9595C9.69826 15.9597 8.95477 16.7098 8.95477 17.6353L8.95477 19.8696C8.95477 20.7951 9.69826 21.5452 10.6159 21.5454L12.8327 21.5454Z"/>
</mask>
<path d="M12.8327 14.0405C13.7505 14.0405 14.4938 13.2903 14.4938 12.3647L14.4938 10.1304C14.4938 9.20543 13.7505 8.45464 12.8327 8.45459L10.6159 8.45459C9.69826 8.45483 8.95477 9.20555 8.95477 10.1304L8.95477 12.3647C8.95477 13.2902 9.69826 14.0403 10.6159 14.0405L12.8327 14.0405ZM20.3845 14.0405C21.3021 14.0403 22.0456 13.2902 22.0456 12.3647L22.0456 10.1304C22.0456 9.20552 21.3021 8.45478 20.3845 8.45459L18.1677 8.45459C17.2499 8.45468 16.5065 9.20546 16.5065 10.1304L16.5065 12.3647C16.5065 13.2903 17.2499 14.0404 18.1677 14.0405L20.3845 14.0405ZM12.8327 21.5454C13.7505 21.5454 14.4938 20.7952 14.4938 19.8696L14.4938 17.6353C14.4938 16.7097 13.7505 15.9595 12.8327 15.9595L10.6159 15.9595C9.69826 15.9597 8.95477 16.7098 8.95477 17.6353L8.95477 19.8696C8.95477 20.7951 9.69826 21.5452 10.6159 21.5454L12.8327 21.5454Z" fill="#F9F9F9"/>
<path d="M12.8327 14.0405L12.8328 15.5405L12.8327 15.5405L12.8327 14.0405ZM12.8327 8.45459L12.8327 6.95459L12.8328 6.95459L12.8327 8.45459ZM10.6159 8.45459L10.6155 6.95459L10.6159 6.95459L10.6159 8.45459ZM10.6159 14.0405L10.6159 15.5405L10.6155 15.5405L10.6159 14.0405ZM20.3845 14.0405L20.3848 15.5405L20.3845 15.5405L20.3845 14.0405ZM22.0456 12.3647L23.5456 12.3647L22.0456 12.3647ZM22.0456 10.1304L20.5456 10.1304L22.0456 10.1304ZM20.3845 8.45459L20.3845 6.95459L20.3848 6.95459L20.3845 8.45459ZM18.1677 8.45459L18.1675 6.95459L18.1677 6.95459L18.1677 8.45459ZM18.1677 14.0405L18.1677 15.5405L18.1675 15.5405L18.1677 14.0405ZM12.8327 21.5454L12.8328 23.0454L12.8327 23.0454L12.8327 21.5454ZM12.8327 15.9595L12.8327 14.4595L12.8328 14.4595L12.8327 15.9595ZM10.6159 15.9595L10.6155 14.4595L10.6159 14.4595L10.6159 15.9595ZM10.6159 21.5454L10.6159 23.0454L10.6155 23.0454L10.6159 21.5454ZM12.8327 14.0405L12.8326 12.5405C12.9096 12.5405 12.9938 12.4745 12.9938 12.3647L14.4938 12.3647L15.9938 12.3647C15.9938 14.1062 14.5915 15.5404 12.8328 15.5405L12.8327 14.0405ZM14.4938 12.3647L12.9938 12.3647L12.9938 10.1304L14.4938 10.1304L15.9938 10.1304L15.9938 12.3647L14.4938 12.3647ZM14.4938 10.1304L12.9938 10.1304C12.9938 10.0209 12.9092 9.95459 12.8326 9.95459L12.8327 8.45459L12.8328 6.95459C14.5918 6.95468 15.9938 8.38993 15.9938 10.1304L14.4938 10.1304ZM12.8327 8.45459L12.8327 9.95459L10.6159 9.95459L10.6159 8.45459L10.6159 6.95459L12.8327 6.95459L12.8327 8.45459ZM10.6159 8.45459L10.6163 9.95459C10.5393 9.95461 10.4548 10.0214 10.4548 10.1304L8.95477 10.1304L7.45477 10.1304C7.45477 8.38974 8.85719 6.95505 10.6155 6.95459L10.6159 8.45459ZM8.95477 10.1304L10.4548 10.1304L10.4548 12.3647L8.95477 12.3647L7.45477 12.3647L7.45477 10.1304L8.95477 10.1304ZM8.95477 12.3647L10.4548 12.3647C10.4548 12.474 10.539 12.5405 10.6163 12.5405L10.6159 14.0405L10.6155 15.5405C8.85755 15.5401 7.45477 14.1064 7.45477 12.3647L8.95477 12.3647ZM10.6159 14.0405L10.6159 12.5405L12.8327 12.5405L12.8327 14.0405L12.8327 15.5405L10.6159 15.5405L10.6159 14.0405ZM20.3845 14.0405L20.3841 12.5405C20.4614 12.5405 20.5456 12.4741 20.5456 12.3647L22.0456 12.3647L23.5456 12.3647C23.5456 14.1063 22.1429 15.5402 20.3848 15.5405L20.3845 14.0405ZM22.0456 12.3647L20.5456 12.3647L20.5456 10.1304L22.0456 10.1304L23.5456 10.1304L23.5456 12.3647L22.0456 12.3647ZM22.0456 10.1304L20.5456 10.1304C20.5456 10.0213 20.461 9.95461 20.3841 9.95459L20.3845 8.45459L20.3848 6.95459C22.1433 6.95496 23.5456 8.38978 23.5456 10.1304L22.0456 10.1304ZM20.3845 8.45459L20.3845 9.95459L18.1677 9.95459L18.1677 8.45459L18.1677 6.95459L20.3845 6.95459L20.3845 8.45459ZM18.1677 8.45459L18.1678 9.95459C18.0912 9.9546 18.0065 10.021 18.0065 10.1304L16.5065 10.1304L15.0065 10.1304C15.0065 8.38989 16.4086 6.95477 18.1675 6.95459L18.1677 8.45459ZM16.5065 10.1304L18.0065 10.1304L18.0065 12.3647L16.5065 12.3647L15.0065 12.3647L15.0065 10.1304L16.5065 10.1304ZM16.5065 12.3647L18.0065 12.3647C18.0065 12.4744 18.0908 12.5405 18.1678 12.5405L18.1677 14.0405L18.1675 15.5405C16.409 15.5403 15.0065 14.1062 15.0065 12.3647L16.5065 12.3647ZM18.1677 14.0405L18.1677 12.5405L20.3845 12.5405L20.3845 14.0405L20.3845 15.5405L18.1677 15.5405L18.1677 14.0405ZM12.8327 21.5454L12.8326 20.0454C12.9096 20.0454 12.9938 19.9793 12.9938 19.8696L14.4938 19.8696L15.9938 19.8696C15.9938 21.6111 14.5915 23.0453 12.8328 23.0454L12.8327 21.5454ZM14.4938 19.8696L12.9938 19.8696L12.9938 17.6353L14.4938 17.6353L15.9938 17.6353L15.9938 19.8696L14.4938 19.8696ZM14.4938 17.6353L12.9938 17.6353C12.9938 17.5255 12.9096 17.4595 12.8326 17.4595L12.8327 15.9595L12.8328 14.4595C14.5915 14.4596 15.9938 15.8938 15.9938 17.6353L14.4938 17.6353ZM12.8327 15.9595L12.8327 17.4595L10.6159 17.4595L10.6159 15.9595L10.6159 14.4595L12.8327 14.4595L12.8327 15.9595ZM10.6159 15.9595L10.6163 17.4595C10.539 17.4595 10.4548 17.526 10.4548 17.6353L8.95477 17.6353L7.45477 17.6353C7.45477 15.8936 8.85755 14.4599 10.6155 14.4595L10.6159 15.9595ZM8.95477 17.6353L10.4548 17.6353L10.4548 19.8696L8.95477 19.8696L7.45477 19.8696L7.45477 17.6353L8.95477 17.6353ZM8.95477 19.8696L10.4548 19.8696C10.4548 19.9789 10.539 20.0454 10.6163 20.0454L10.6159 21.5454L10.6155 23.0454C8.85755 23.0449 7.45477 21.6113 7.45477 19.8696L8.95477 19.8696ZM10.6159 21.5454L10.6159 20.0454L12.8327 20.0454L12.8327 21.5454L12.8327 23.0454L10.6159 23.0454L10.6159 21.5454Z" fill="#F9F9F9" mask="url(#path-4-inside-2_341_975)"/>
</svg>
