<svg width="56" height="56" viewBox="0 0 56 56" fill="none" xmlns="http://www.w3.org/2000/svg">
<g filter="url(#filter0_d_1_4493)">
<rect x="5.5" y="2" width="45" height="45" rx="12" fill="#D56C5C" fill-opacity="0.1"/>
</g>
<path d="M37.125 18.5312H29.0194L28.0718 15.6759C27.9234 15.2516 27.6471 14.8836 27.281 14.6227C26.915 14.3618 26.4771 14.2206 26.0275 14.2188H19.875C19.3033 14.2194 18.7553 14.4468 18.351 14.851C17.9468 15.2553 17.7194 15.8033 17.7188 16.375V33.625C17.7194 34.1967 17.9468 34.7447 18.351 35.149C18.7553 35.5532 19.3033 35.7806 19.875 35.7812H32.8125C34.5275 35.7793 36.1718 35.0972 37.3845 33.8845C38.5972 32.6718 39.2793 31.0275 39.2812 29.3125V20.6875C39.2806 20.1158 39.0532 19.5678 38.649 19.1635C38.2447 18.7593 37.6967 18.5319 37.125 18.5312ZM32.8125 34.3438C31.8174 34.3438 30.8447 34.0487 30.0173 33.4958C29.1899 32.943 28.545 32.1572 28.1642 31.2379C27.7834 30.3185 27.6838 29.3069 27.8779 28.331C28.0721 27.355 28.5512 26.4585 29.2549 25.7549C29.9585 25.0512 30.855 24.5721 31.831 24.3779C32.8069 24.1838 33.8185 24.2834 34.7379 24.6642C35.6572 25.045 36.443 25.6899 36.9958 26.5173C37.5487 27.3447 37.8438 28.3174 37.8438 29.3125C37.8422 30.6464 37.3116 31.9252 36.3684 32.8684C35.4252 33.8116 34.1464 34.3422 32.8125 34.3438ZM37.8438 25.2513C37.7045 25.0801 37.5565 24.9161 37.4006 24.7599L37.3787 24.7358C37.1098 24.4714 36.8183 24.2309 36.5077 24.017C36.4625 23.9854 36.4195 23.9518 36.3732 23.9213C36.0692 23.721 35.7486 23.5468 35.4151 23.4008C35.3543 23.3738 35.2938 23.3485 35.2321 23.3236C34.8889 23.183 34.5342 23.0726 34.1718 22.9937C34.1178 22.9818 34.0624 22.9754 34.0078 22.9649C32.9735 22.7614 31.905 22.8155 30.8965 23.1225C29.8881 23.4296 28.9707 23.98 28.2253 24.7254C27.4799 25.4708 26.9294 26.3881 26.6223 27.3965C26.3152 28.405 26.261 29.4735 26.4645 30.5078C26.4748 30.5625 26.4815 30.6178 26.4932 30.6718C26.5723 31.0341 26.6827 31.3888 26.8232 31.732C26.8482 31.7938 26.8733 31.8544 26.9003 31.9151C27.0466 32.2486 27.2207 32.5692 27.421 32.8733C27.4516 32.9196 27.4851 32.9625 27.5169 33.0077C27.7307 33.3184 27.9712 33.6098 28.2356 33.8787L28.2598 33.9006C28.4161 34.0565 28.5801 34.2044 28.7513 34.3438H19.875C19.6845 34.3434 19.5019 34.2675 19.3672 34.1328C19.2325 33.9981 19.1566 33.8155 19.1562 33.625V16.375C19.1566 16.1845 19.2325 16.0019 19.3672 15.8672C19.5019 15.7325 19.6845 15.6566 19.875 15.6562H26.0275C26.177 15.6587 26.3222 15.7063 26.4442 15.7927C26.5662 15.8791 26.6593 16.0003 26.7112 16.1405L27.8181 19.4755C27.8652 19.6191 27.9566 19.7441 28.0791 19.8327C28.2015 19.9213 28.3489 19.9689 28.5 19.9688H37.125C37.3155 19.9691 37.4981 20.045 37.6328 20.1797C37.7675 20.3144 37.8434 20.497 37.8438 20.6875V25.2513Z" fill="#D56C5C"/>
<path d="M30.3125 29.3117L32.0803 31.0795L35.6154 27.5439" stroke="#D67252" stroke-linecap="round" stroke-linejoin="round"/>
<defs>
<filter id="filter0_d_1_4493" x="-4.76837e-07" y="-2.38419e-07" width="56" height="56" filterUnits="userSpaceOnUse" color-interpolation-filters="sRGB">
<feFlood flood-opacity="0" result="BackgroundImageFix"/>
<feColorMatrix in="SourceAlpha" type="matrix" values="0 0 0 0 0 0 0 0 0 0 0 0 0 0 0 0 0 0 127 0" result="hardAlpha"/>
<feOffset dy="3.5"/>
<feGaussianBlur stdDeviation="2.75"/>
<feColorMatrix type="matrix" values="0 0 0 0 0 0 0 0 0 0 0 0 0 0 0 0 0 0 0.02 0"/>
<feBlend mode="normal" in2="BackgroundImageFix" result="effect1_dropShadow_1_4493"/>
<feBlend mode="normal" in="SourceGraphic" in2="effect1_dropShadow_1_4493" result="shape"/>
</filter>
</defs>
</svg>
