<svg width="30" height="30" viewBox="0 0 30 30" fill="none" xmlns="http://www.w3.org/2000/svg">
<rect width="30" height="30" rx="12" fill="#F9F9F9" fill-opacity="0.2"/>
<path d="M13.9717 13.0014L14.7041 13.7338C14.7477 13.7774 14.8183 13.7774 14.8619 13.7338L16 12.5957" stroke="#F9F9F9" stroke-width="0.892461" stroke-linecap="round"/>
<circle cx="15.0625" cy="13" r="2.5" stroke="#F9F9F9"/>
<path d="M17.1689 9.60931L17.0908 7.69305C17.0806 7.4442 17.3801 7.31111 17.558 7.4854L19.3794 9.26977C19.5554 9.44217 19.4333 9.74121 19.187 9.74121H17.3063C17.2325 9.74121 17.1719 9.68301 17.1689 9.60931Z" stroke="#F9F9F9"/>
<path d="M10.7614 17.7V7.3C10.7614 7.13431 10.8957 7 11.0614 7H17.2199C17.2465 7 17.2719 7.01054 17.2907 7.02929L19.7321 9.47071C19.7508 9.48946 19.7614 9.5149 19.7614 9.54142V17.7C19.7614 17.8657 19.627 18 19.4614 18H11.0614C10.8957 18 10.7614 17.8657 10.7614 17.7Z" stroke="#F9F9F9"/>
<path d="M9.56321 11H8.72727C7.96788 11 7.35227 11.6156 7.35227 12.375V21.125C7.35227 21.8844 7.96788 22.5 8.72727 22.5H21.4773C22.2367 22.5 22.8523 21.8844 22.8523 21.125V12.375C22.8523 11.6156 22.2367 11 21.4773 11H20.8523" stroke="#F9F9F9" stroke-linecap="round"/>
<path d="M23.9625 20H6.1625C5.83113 20 5.5625 20.2686 5.5625 20.6C5.5625 21.9255 6.63702 23 7.9625 23H22.1625C23.488 23 24.5625 21.9255 24.5625 20.6C24.5625 20.2686 24.2939 20 23.9625 20Z" fill="#604159" stroke="#F9F9F9"/>
<path d="M18.1898 20.0908H12.6625C12.5822 20.0908 12.517 20.1559 12.517 20.2363C12.517 20.5576 12.7775 20.8181 13.0989 20.8181H17.7534C18.0747 20.8181 18.3352 20.5576 18.3352 20.2363C18.3352 20.1559 18.2701 20.0908 18.1898 20.0908Z" fill="#4A4A4A" stroke="#F9F9F9" stroke-width="0.5"/>
</svg>
