<svg width="18" height="24" viewBox="0 0 18 24" fill="none" xmlns="http://www.w3.org/2000/svg">
<path d="M15 0H3C1.3455 0 0 1.3455 0 3V18C0 18.2655 0.105 18.519 0.2925 18.7065L5.292 23.706C5.481 23.895 5.7345 24 6 24H15C16.6545 24 18 22.6545 18 21V3C18 1.3455 16.6545 0 15 0ZM16.0005 21C16.0005 21.552 15.552 22.0005 15 22.0005H7.0005V19.7505C7.0005 18.234 5.7675 17.001 4.251 17.001H2.001V3C2.001 2.448 2.4495 1.9995 3.0015 1.9995H15.0015C15.5535 1.9995 16.002 2.448 16.002 3L16.0005 21Z" fill="#F9F9F9"/>
<path d="M12.25 8.0005H5.7505C4.786 8.0005 4 7.216 4 6.25V5.7505C4 4.786 4.7845 4 5.7505 4H12.25C13.2145 4 14.0005 4.7845 14.0005 5.7505V6.25C13.999 7.216 13.2145 8.0005 12.25 8.0005Z" fill="#F9F9F9" fill-opacity="0.5"/>
<path d="M13 12.001H5.0005C4.4485 12.001 4 11.5525 4 11.0005C4 10.4485 4.4485 10 5.0005 10H13C13.552 10 14.0005 10.4485 14.0005 11.0005C14.0005 11.5525 13.552 12.001 13 12.001Z" fill="#F9F9F9"/>
<path d="M13 16H5.0005C4.4485 16 4 15.5515 4 14.9995C4 14.4475 4.4485 13.999 5.0005 13.999H13C13.552 13.999 14.0005 14.4475 14.0005 14.9995C14.0005 15.5515 13.552 16 13 16Z" fill="#F9F9F9" fill-opacity="0.5"/>
</svg>
