<svg width="20" height="20" viewBox="0 0 20 20" fill="none" xmlns="http://www.w3.org/2000/svg">
<g clip-path="url(#clip0_1_4691)">
<path d="M18.8333 7.4585C18.9167 7.2085 18.8333 6.91683 18.625 6.75016L10.375 0.333496C10.1667 0.166829 9.83334 0.166829 9.625 0.333496L1.375 6.75016C1.16667 6.91683 1.08334 7.2085 1.16667 7.4585C1.25 7.7085 1.5 7.87516 1.75 7.87516H18.25C18.5417 7.87516 18.75 7.7085 18.8333 7.4585ZM3.54167 6.62516L10 1.62516L16.4583 6.62516H3.54167Z" fill="#1F0D19"/>
<path d="M1.75 16.417H18.25V17.667H1.75V16.417Z" fill="#1F0D19"/>
<path d="M0.833344 18.542H19.1667V19.792H0.833344V18.542Z" fill="#1F0D19"/>
<path d="M11.375 14.3337V15.5837H13.4583V14.3337H13.0417V10.042H13.4583V8.79199H11.375V10.042H11.7917V14.3337H11.375Z" fill="#1F0D19"/>
<path d="M18.25 10.042V8.79199H16.1667V10.042H16.5834V14.3337H16.1667V15.5837H18.25V14.3337H17.8334V10.042H18.25Z" fill="#1F0D19"/>
<path d="M6.54169 14.3337V15.5837H8.62502V14.3337H8.20835V10.042H8.62502V8.79199H6.54169V10.042H6.95835V14.3337H6.54169Z" fill="#1F0D19"/>
<path d="M1.75 14.3337V15.5837H3.83333V14.3337H3.41667V10.042H3.83333V8.79199H1.75V10.042H2.16667V14.3337H1.75Z" fill="#1F0D19"/>
<path d="M9.375 4.04199H10.625V5.29199H9.375V4.04199Z" fill="#1F0D19"/>
</g>
<defs>
<clipPath id="clip0_1_4691">
<rect width="20" height="20" fill="white"/>
</clipPath>
</defs>
</svg>
