<svg width="20" height="20" viewBox="0 0 20 20" fill="none" xmlns="http://www.w3.org/2000/svg">
<path d="M3.71094 7.85156L3.72604 7.85175C4.04267 7.85977 4.29688 8.11895 4.29688 8.4375V11.5625C4.29688 11.8861 4.03454 12.1484 3.71094 12.1484H0.585938C0.262333 12.1484 0 11.8861 0 11.5625V8.4375L0.000190735 8.42239C0.00820333 8.10577 0.267384 7.85156 0.585938 7.85156H3.71094ZM1.17188 10.9766H3.125V9.02344H1.17188V10.9766Z" fill="#1F0D19"/>
<path d="M19.4141 7.85156L19.4292 7.85175C19.7458 7.85977 20 8.11895 20 8.4375V11.5625C20 11.8861 19.7377 12.1484 19.4141 12.1484H6.05469C5.73108 12.1484 5.46875 11.8861 5.46875 11.5625V8.4375L5.46894 8.42239C5.47695 8.10577 5.73613 7.85156 6.05469 7.85156H19.4141ZM6.64062 10.9766H18.8281V9.02344H6.64062V10.9766Z" fill="#1F0D19"/>
<path d="M3.71094 13.3203L3.72604 13.3205C4.04267 13.3285 4.29688 13.5877 4.29688 13.9062V17.0312C4.29688 17.3549 4.03454 17.6172 3.71094 17.6172H0.585938C0.262333 17.6172 0 17.3549 0 17.0312V13.9062L0.000190735 13.8911C0.00820333 13.5745 0.267384 13.3203 0.585938 13.3203H3.71094ZM1.17188 16.4453H3.125V14.4922H1.17188V16.4453Z" fill="#1F0D19"/>
<path d="M19.4141 13.3203L19.4292 13.3205C19.7458 13.3285 20 13.5877 20 13.9062V17.0312C20 17.3549 19.7377 17.6172 19.4141 17.6172H6.05469C5.73108 17.6172 5.46875 17.3549 5.46875 17.0312V13.9062L5.46894 13.8911C5.47695 13.5745 5.73613 13.3203 6.05469 13.3203H19.4141ZM6.64062 16.4453H18.8281V14.4922H6.64062V16.4453Z" fill="#1F0D19"/>
<path d="M3.71094 2.38281L3.72604 2.383C4.04267 2.39102 4.29688 2.6502 4.29688 2.96875V6.09375C4.29688 6.41735 4.03454 6.67969 3.71094 6.67969H0.585938C0.262333 6.67969 0 6.41735 0 6.09375V2.96875L0.000190735 2.95364C0.00820333 2.63702 0.267384 2.38281 0.585938 2.38281H3.71094ZM1.17188 5.50781H3.125V3.55469H1.17188V5.50781Z" fill="#1F0D19"/>
<path d="M19.4141 2.38281L19.4292 2.383C19.7458 2.39102 20 2.6502 20 2.96875V6.09375C20 6.41735 19.7377 6.67969 19.4141 6.67969H6.05469C5.73108 6.67969 5.46875 6.41735 5.46875 6.09375V2.96875L5.46894 2.95364C5.47695 2.63702 5.73613 2.38281 6.05469 2.38281H19.4141ZM6.64062 5.50781H18.8281V3.55469H6.64062V5.50781Z" fill="#1F0D19"/>
</svg>
