<svg width="20" height="20" viewBox="0 0 20 20" fill="none" xmlns="http://www.w3.org/2000/svg">
<g clip-path="url(#clip0_1_2881)">
<mask id="mask0_1_2881" style="mask-type:luminance" maskUnits="userSpaceOnUse" x="0" y="0" width="20" height="20">
<path d="M0 1.90735e-06H20V20H0V1.90735e-06Z" fill="white"/>
</mask>
<g mask="url(#mask0_1_2881)">
<path d="M19.4141 20L19.43 19.9998C19.5938 19.9953 19.7485 19.9225 19.8563 19.7984C19.9676 19.6704 20.0179 19.5003 19.9943 19.3323L19.084 12.8705C18.8897 11.4912 17.8367 10.3897 16.4676 10.1335L16.4676 10.1335L12.4613 9.38377C12.4258 9.37712 12.3897 9.37379 12.3535 9.37379H7.64649C7.61486 9.37379 7.58329 9.37636 7.55208 9.38146L7.53872 9.38377L3.53243 10.1335C2.17397 10.3877 1.12683 11.474 0.920774 12.8382L0.916053 12.8705L0.00573305 19.3323C-0.0179341 19.5003 0.0323773 19.6704 0.143663 19.7984C0.254949 19.9265 0.41629 20 0.585949 20H19.4141ZM2.07646 13.034H2.07648L2.08269 12.9928C2.22168 12.1309 2.88698 11.4465 3.74798 11.2854L7.70091 10.5457H12.2991L16.252 11.2854H16.2521L16.2929 11.2934C17.1476 11.4711 17.8013 12.1665 17.9235 13.034L18.7398 18.8281H1.26023L2.07646 13.034Z" fill="#1F0D19"/>
<path d="M12.9443 4.11741V6.43066C12.9443 8.05678 11.6261 9.375 10 9.375C8.37391 9.375 7.05566 8.05678 7.05566 6.43066V4.11741C7.05566 4.05558 7.05758 3.99425 7.0613 3.93345L5.8916 3.86178C5.88642 3.94636 5.88379 4.0316 5.88379 4.11741V6.43066C5.88379 8.704 7.72671 10.5469 10 10.5469C12.2733 10.5469 14.1162 8.704 14.1162 6.43066V4.11741C14.1162 4.03212 14.1136 3.94759 14.1085 3.86393L12.9388 3.93491C12.9424 3.99545 12.9443 4.05631 12.9443 4.11741Z" fill="#1F0D19"/>
<path d="M13.3573 2.94042C13.3573 3.36933 13.0853 3.53125 12.9594 3.53125C12.0911 3.53125 11.4561 3.27452 11.0424 3.02634C10.8343 2.90149 10.6813 2.77817 10.5834 2.68965C10.5345 2.64547 10.4997 2.61027 10.479 2.58834C10.4686 2.5774 10.4618 2.5698 10.4586 2.56611C10.4572 2.56461 10.4565 2.56376 10.4564 2.56359C10.4564 2.56369 10.4567 2.56405 10.4572 2.56465C10.4575 2.56497 10.4578 2.56535 10.4582 2.5658C10.4584 2.56602 10.4586 2.56628 10.4588 2.56654L10.4591 2.56694C10.3478 2.4324 10.1823 2.35448 10.0077 2.35448H10.0007C9.82605 2.35448 9.66052 2.43239 9.54922 2.56694V2.56691C9.54927 2.56685 9.54945 2.56664 9.54956 2.56651C9.54977 2.56626 9.54998 2.56602 9.55016 2.5658C9.55053 2.56535 9.55084 2.56497 9.55111 2.56465C9.55162 2.56404 9.55193 2.5637 9.55202 2.56359C9.55188 2.56377 9.55114 2.56462 9.54982 2.56611C9.54656 2.56981 9.53975 2.57739 9.52939 2.58834C9.50865 2.61027 9.47386 2.64548 9.42499 2.68965C9.32707 2.77817 9.17407 2.90149 8.96594 3.02634C8.5522 3.27453 7.91722 3.53125 7.04897 3.53125C6.92302 3.53125 6.651 3.36933 6.651 2.94042C6.65101 1.86162 7.36354 1.17285 8.03288 1.17285H11.9755C12.6448 1.17285 13.3573 1.86162 13.3573 2.94042ZM14.5292 2.94042C14.5292 1.41962 13.4797 0.000976562 11.9755 0.000976562H8.03288C6.52863 0.000977039 5.47913 1.41962 5.47913 2.94042C5.47913 3.81135 6.08812 4.70312 7.04897 4.70312C8.16076 4.70312 9.00165 4.37146 9.56876 4.03127C9.7387 3.92933 9.88374 3.82679 10.0042 3.73252C10.1246 3.82679 10.2697 3.92933 10.4396 4.03127C11.0067 4.37146 11.8476 4.70312 12.9594 4.70312C13.9202 4.70312 14.5292 3.81135 14.5292 2.94042Z" fill="#1F0D19"/>
<path d="M10.5901 19.4141V14.707H9.41827V19.4141H10.5901Z" fill="#1F0D19"/>
<path d="M7.05095 13.4496L5.88854 13.3009L5.10242 19.445L6.26479 19.5938L7.05095 13.4496Z" fill="#1F0D19"/>
<path d="M10.5481 10.1687L9.45197 9.75412L7.74268 14.2729L8.83873 14.6875L10.5481 10.1687Z" fill="#1F0D19"/>
<path d="M10.0042 15.293C11.2734 15.293 12.2648 15.0015 13.0311 14.5344C13.7962 14.068 14.3042 13.4464 14.6389 12.8349C14.9719 12.2267 15.1359 11.6245 15.2176 11.1786C15.2586 10.9544 15.2795 10.7662 15.2902 10.6314C15.2955 10.5639 15.2983 10.5095 15.2998 10.4704C15.3005 10.4509 15.3009 10.4351 15.3011 10.4234C15.3012 10.4175 15.3013 10.4127 15.3013 10.4089C15.3013 10.407 15.3013 10.4054 15.3013 10.404C15.3013 10.4033 15.3014 10.4027 15.3014 10.4022C15.3014 10.4019 15.3014 10.4015 15.3014 10.4014C15.3014 10.4012 15.3002 10.401 15.2281 10.4008L14.2027 10.3995C14.1308 10.3993 14.1295 10.3992 14.1295 10.399V10.3976C14.1295 10.398 14.1295 10.3993 14.1294 10.4016C14.1294 10.4062 14.1291 10.4146 14.1287 10.4266C14.1278 10.4506 14.1259 10.4888 14.1219 10.5391C14.114 10.6398 14.0977 10.788 14.0649 10.9676C13.9986 11.3292 13.8674 11.8038 13.611 12.2722C13.3563 12.7375 12.9807 13.1926 12.4211 13.5338C11.8628 13.8741 11.0885 14.1211 10.0042 14.1211C8.91991 14.1211 8.14562 13.8741 7.58731 13.5338C7.02771 13.1926 6.65209 12.7375 6.39741 12.2722C6.14095 11.8038 6.00976 11.3292 5.94354 10.9676C5.91065 10.788 5.89442 10.6398 5.88646 10.539C5.88249 10.4888 5.8806 10.4506 5.87971 10.4266C5.87926 10.4146 5.87905 10.4062 5.87896 10.4016C5.87892 10.3993 5.87891 10.398 5.87891 10.3976V10.399C5.8788 10.3993 5.87099 10.3996 5.29297 10.4002C4.71453 10.4007 4.70713 10.4011 4.70703 10.4014V10.404C4.70704 10.4054 4.70707 10.407 4.70709 10.4089C4.70713 10.4127 4.70718 10.4176 4.70729 10.4234C4.70751 10.4351 4.7079 10.4509 4.70863 10.4704C4.7101 10.5095 4.71288 10.5639 4.71822 10.6314C4.72887 10.7662 4.74977 10.9544 4.79083 11.1786C4.87249 11.6245 5.03652 12.2267 5.3695 12.8349C5.70425 13.4464 6.21227 14.068 6.97731 14.5344C7.74364 15.0015 8.73501 15.293 10.0042 15.293Z" fill="#1F0D19"/>
<path d="M14.9059 19.337L14.1197 13.2971L12.9576 13.4483L13.7438 19.4883L14.9059 19.337Z" fill="#1F0D19"/>
<path d="M12.2657 14.2729L10.5564 9.75412L9.46033 10.1687L11.1696 14.6875L12.2657 14.2729Z" fill="#1F0D19"/>
</g>
</g>
<defs>
<clipPath id="clip0_1_2881">
<rect width="20" height="20" fill="white"/>
</clipPath>
</defs>
</svg>
