<svg width="17" height="24" viewBox="0 0 17 24" fill="none" xmlns="http://www.w3.org/2000/svg">
<path d="M0 8.21681C0 6.67367 0.354919 5.27655 1.06476 4.02544C1.77459 2.77434 2.74405 1.79204 3.96983 1.07522C5.19561 0.358407 6.56271 0 8.07111 0C9.57952 0 10.9729 0.358407 12.1888 1.07522C13.4048 1.79204 14.3676 2.77434 15.0775 4.02544C15.7873 5.27655 16.1422 6.67035 16.1422 8.21681C16.1422 9.43474 15.9122 10.5697 15.4488 11.625C14.9855 12.6803 14.3249 13.5763 13.4639 14.3164L10.8349 12.2456C11.3738 11.7876 12.0508 10.9646 12.3203 10.3241C12.5898 9.68363 12.7245 8.98009 12.7245 8.22013C12.7245 7.32743 12.524 6.54093 12.1264 5.8573C11.7287 5.17367 11.1832 4.63938 10.4964 4.26106C9.80627 3.87943 9.00113 3.69027 8.0744 3.69027C7.14767 3.69027 6.36882 3.87943 5.66884 4.26106C4.96886 4.6427 4.42005 5.17367 4.02241 5.8573C3.62477 6.54093 3.42431 7.33075 3.42431 8.22013C3.42431 8.98009 3.55905 9.68031 3.82852 10.3241C4.098 10.9646 4.86699 11.8839 5.40594 12.3418L2.68161 14.3197C1.8206 13.5796 1.15677 12.6836 0.696692 11.6283C0.233326 10.573 0.00328628 9.43805 0.00328628 8.22013L0 8.21681Z" fill="#F9F9F9"/>
<path d="M8.10502 12.7104L0.500561 18.737V23.4096L8.08859 17.6087L15.6963 23.4096V18.6341L8.10502 12.7104Z" fill="#F9F9F9"/>
</svg>
