<svg width="30" height="30" viewBox="0 0 30 30" fill="none" xmlns="http://www.w3.org/2000/svg">
<rect width="30" height="30" rx="12" fill="#F9F9F9" fill-opacity="0.2"/>
<path d="M18.3333 19.0002C18.3333 19.3684 18.6318 19.6668 19 19.6668C19.3682 19.6668 19.6667 19.3684 19.6667 19.0002C19.6667 18.632 19.3682 18.3335 19 18.3335C18.6318 18.3335 18.3333 18.632 18.3333 19.0002Z" stroke="white" stroke-width="1.5" stroke-linecap="round" stroke-linejoin="round"/>
<path d="M14.3333 19.0002C14.3333 19.3684 14.6318 19.6668 15 19.6668C15.3682 19.6668 15.6667 19.3684 15.6667 19.0002C15.6667 18.632 15.3682 18.3335 15 18.3335C14.6318 18.3335 14.3333 18.632 14.3333 19.0002Z" stroke="white" stroke-width="1.5" stroke-linecap="round" stroke-linejoin="round"/>
<path d="M10.3333 19.0002C10.3333 19.3684 10.6318 19.6668 11 19.6668C11.3682 19.6668 11.6667 19.3684 11.6667 19.0002C11.6667 18.632 11.3682 18.3335 11 18.3335C10.6318 18.3335 10.3333 18.632 10.3333 19.0002Z" stroke="white" stroke-width="1.5" stroke-linecap="round" stroke-linejoin="round"/>
<path d="M18.3333 15.0002C18.3333 15.3684 18.6318 15.6668 19 15.6668C19.3682 15.6668 19.6667 15.3684 19.6667 15.0002C19.6667 14.632 19.3682 14.3335 19 14.3335C18.6318 14.3335 18.3333 14.632 18.3333 15.0002Z" stroke="white" stroke-width="1.5" stroke-linecap="round" stroke-linejoin="round"/>
<path d="M14.3333 15.0002C14.3333 15.3684 14.6318 15.6668 15 15.6668C15.3682 15.6668 15.6667 15.3684 15.6667 15.0002C15.6667 14.632 15.3682 14.3335 15 14.3335C14.6318 14.3335 14.3333 14.632 14.3333 15.0002Z" stroke="white" stroke-width="1.5" stroke-linecap="round" stroke-linejoin="round"/>
<path d="M10.3333 15.0002C10.3333 15.3684 10.6318 15.6668 11 15.6668C11.3682 15.6668 11.6667 15.3684 11.6667 15.0002C11.6667 14.632 11.3682 14.3335 11 14.3335C10.6318 14.3335 10.3333 14.632 10.3333 15.0002Z" stroke="white" stroke-width="1.5" stroke-linecap="round" stroke-linejoin="round"/>
<path d="M18.3333 11.0002C18.3333 11.3684 18.6318 11.6668 19 11.6668C19.3682 11.6668 19.6667 11.3684 19.6667 11.0002C19.6667 10.632 19.3682 10.3335 19 10.3335C18.6318 10.3335 18.3333 10.632 18.3333 11.0002Z" stroke="white" stroke-width="1.5" stroke-linecap="round" stroke-linejoin="round"/>
<path d="M14.3333 11.0002C14.3333 11.3684 14.6318 11.6668 15 11.6668C15.3682 11.6668 15.6667 11.3684 15.6667 11.0002C15.6667 10.632 15.3682 10.3335 15 10.3335C14.6318 10.3335 14.3333 10.632 14.3333 11.0002Z" stroke="white" stroke-width="1.5" stroke-linecap="round" stroke-linejoin="round"/>
<path d="M10.3333 11.0002C10.3333 11.3684 10.6318 11.6668 11 11.6668C11.3682 11.6668 11.6667 11.3684 11.6667 11.0002C11.6667 10.632 11.3682 10.3335 11 10.3335C10.6318 10.3335 10.3333 10.632 10.3333 11.0002Z" stroke="white" stroke-width="1.5" stroke-linecap="round" stroke-linejoin="round"/>
</svg>
