<svg width="25" height="25" viewBox="0 0 25 25" fill="none" xmlns="http://www.w3.org/2000/svg">
<rect width="25" height="25" rx="4" fill="white"/>
<path d="M12.4992 6.07129C8.95007 6.07129 6.07061 8.95075 6.07061 12.4999C6.07061 16.049 8.95007 18.9284 12.4992 18.9284C16.0483 18.9284 18.9277 16.049 18.9277 12.4999C18.9277 8.95075 16.0483 6.07129 12.4992 6.07129ZM12.2983 16.2499C12.1658 16.2499 12.0364 16.2106 11.9263 16.137C11.8161 16.0634 11.7303 15.9588 11.6796 15.8365C11.6289 15.7141 11.6157 15.5795 11.6415 15.4496C11.6673 15.3197 11.7311 15.2004 11.8248 15.1067C11.9184 15.0131 12.0377 14.9493 12.1676 14.9234C12.2975 14.8976 12.4322 14.9109 12.5545 14.9615C12.6769 15.0122 12.7815 15.0981 12.8551 15.2082C12.9287 15.3183 12.9679 15.4478 12.9679 15.5802C12.9679 15.7578 12.8974 15.9281 12.7718 16.0537C12.6462 16.1793 12.4759 16.2499 12.2983 16.2499ZM13.4179 12.8347C12.8752 13.199 12.8005 13.5328 12.8005 13.8391C12.8005 13.9635 12.7511 14.0827 12.6632 14.1706C12.5753 14.2585 12.4561 14.3079 12.3318 14.3079C12.2074 14.3079 12.0882 14.2585 12.0003 14.1706C11.9124 14.0827 11.863 13.9635 11.863 13.8391C11.863 13.1056 12.2005 12.5223 12.8949 12.0559C13.5405 11.6226 13.9054 11.3481 13.9054 10.7444C13.9054 10.3339 13.6711 10.0222 13.1859 9.79149C13.0717 9.73725 12.8176 9.68435 12.5049 9.68803C12.1125 9.69305 11.8078 9.7868 11.5731 9.97564C11.1304 10.3319 11.0929 10.7196 11.0929 10.7253C11.09 10.7869 11.0749 10.8472 11.0486 10.903C11.0223 10.9587 10.9853 11.0087 10.9397 11.0501C10.894 11.0916 10.8407 11.1236 10.7827 11.1444C10.7247 11.1652 10.6631 11.1744 10.6016 11.1715C10.54 11.1685 10.4797 11.1534 10.4239 11.1271C10.3682 11.1008 10.3182 11.0638 10.2767 11.0182C10.2353 10.9726 10.2033 10.9192 10.1825 10.8612C10.1616 10.8032 10.1525 10.7417 10.1554 10.6801C10.1591 10.5987 10.2157 9.86582 10.9848 9.24707C11.3836 8.92631 11.8908 8.75957 12.4915 8.7522C12.9167 8.74718 13.3161 8.81917 13.587 8.94707C14.3976 9.33044 14.8429 9.96961 14.8429 10.7444C14.8429 11.8771 14.0859 12.3857 13.4179 12.8347Z" fill="url(#paint0_linear_341_1181)"/>
<defs>
<linearGradient id="paint0_linear_341_1181" x1="6.07061" y1="12.4999" x2="18.9277" y2="12.4999" gradientUnits="userSpaceOnUse">
<stop stop-color="#50223C"/>
<stop offset="1" stop-color="#6D5074"/>
</linearGradient>
</defs>
</svg>
