<svg width="30" height="30" viewBox="0 0 30 30" fill="none" xmlns="http://www.w3.org/2000/svg">
<rect width="30" height="30" rx="12" fill="#F9F9F9" fill-opacity="0.2"/>
<g clip-path="url(#clip0_341_1041)">
<mask id="mask0_341_1041" style="mask-type:luminance" maskUnits="userSpaceOnUse" x="3" y="5" width="20" height="19">
<path d="M3.5625 5H22.5625V24H3.5625V5Z" fill="white"/>
</mask>
<g mask="url(#mask0_341_1041)">
<path d="M8.43053 20.7561C8.64786 20.9732 9 20.9732 9.21733 20.7561L14.8503 15.1266L15.5568 14.4205C15.6613 14.316 15.72 14.1744 15.72 14.0267C15.7199 13.8789 15.6612 13.7373 15.5567 13.6329L14.7618 12.8389C14.114 12.1912 13.0634 12.1912 12.4156 12.839L8.43045 16.8214L7.6358 17.6156C7.60045 17.6509 7.56889 17.686 7.54105 17.719L7.54107 17.719C7.01861 18.3362 7.01919 19.243 7.542 19.8599C7.5725 19.8964 7.60423 19.9307 7.63577 19.9622L8.43053 20.7561ZM8.42232 19.1743C8.41148 19.1635 8.40249 19.1536 8.39563 19.1453C8.39421 19.1436 8.39278 19.1419 8.39134 19.1402C8.22259 18.941 8.22017 18.6487 8.38327 18.4473L8.39115 18.4378L8.39229 18.4365C8.40386 18.4228 8.4138 18.4119 8.42232 18.4034L13.2028 13.6262C13.4158 13.4131 13.7617 13.4131 13.9748 13.6262L14.3758 14.0268L8.82393 19.5755L8.42232 19.1743Z" fill="#F9F9F9"/>
<path d="M10.4592 21.371C10.6773 21.5782 11.022 21.5748 11.2359 21.361L16.162 16.4378C16.2665 16.3334 16.3252 16.1918 16.3252 16.0441C16.3252 15.8964 16.2665 15.7548 16.162 15.6504L14.85 14.3392C14.6327 14.1219 14.2804 14.1219 14.063 14.3392L9.13693 19.2623C9.03247 19.3667 8.97377 19.5084 8.97377 19.6561C8.97377 19.8037 9.03246 19.9454 9.13693 20.0498L10.4489 21.361L10.4592 21.371ZM10.3178 19.6561L14.4565 15.5198L14.9811 16.0441L10.8424 20.1803L10.3178 19.6561Z" fill="#F9F9F9"/>
<path d="M9.4542 16.6066C9.67225 16.8135 10.0167 16.8101 10.2306 16.5964L11.3947 15.4333C11.4992 15.3289 11.5579 15.1873 11.5579 15.0396C11.5579 14.8919 11.4992 14.7502 11.3947 14.6458C10.6991 13.9506 9.88771 12.6353 9.30944 11.6058L9.30947 11.6058C8.93616 10.9407 8.67826 10.4283 8.63707 10.3461C8.57972 10.2159 8.51129 10.0896 8.43246 9.96926C8.3336 9.81821 8.21811 9.67581 8.08652 9.54425L8.08654 9.54423C7.0515 8.50937 5.37366 8.51 4.33887 9.54414L4.33876 9.54425C3.30433 10.5786 3.30376 12.2555 4.33879 13.2903L4.33925 13.2908C4.5787 13.5296 4.85305 13.7138 5.14643 13.8429C5.29405 13.9165 6.49597 14.5229 7.6692 15.2652L7.66939 15.2653C7.95543 15.4461 8.23701 15.6332 8.49965 15.8216C8.87508 16.0909 9.20131 16.3544 9.44393 16.5966L9.4542 16.6066ZM9.81876 15.4342C9.60999 15.2586 9.38279 15.085 9.14851 14.9169H9.14848C8.86419 14.713 8.56394 14.5138 8.26438 14.3244L8.26441 14.3244C7.01709 13.5352 5.748 12.8986 5.63276 12.8414C5.633 12.8415 5.63325 12.8416 5.63349 12.8418C5.63314 12.8416 5.63279 12.8414 5.63243 12.8412C5.63223 12.8411 5.63203 12.841 5.63183 12.8409C5.63077 12.8404 5.62971 12.8398 5.62857 12.8392C5.62184 12.8359 5.61084 12.8307 5.59658 12.8247C5.42625 12.75 5.26631 12.6431 5.12545 12.5026C4.52594 11.9027 4.52631 10.9312 5.12583 10.3316C5.72615 9.73166 6.69935 9.73155 7.29942 10.3315L7.29945 10.3315C7.37706 10.4091 7.44412 10.4921 7.50101 10.579L7.50115 10.5793C7.54834 10.6513 7.58884 10.7266 7.62215 10.8037L7.6224 10.8042C7.62848 10.8185 7.63517 10.8324 7.6424 10.8461C7.68927 10.9396 7.95515 11.4675 8.33866 12.1507L8.33874 12.1509C8.82463 13.0159 9.52991 14.1865 10.2322 15.0211L9.81876 15.4342ZM7.61411 10.7824C7.61615 10.7879 7.6183 10.7934 7.62052 10.7988C7.61835 10.7935 7.61621 10.7881 7.61411 10.7824ZM7.63044 10.8219C7.63042 10.8219 7.63041 10.8219 7.63039 10.8218C7.63034 10.8217 7.6303 10.8216 7.63025 10.8215L7.62943 10.8198C7.62908 10.819 7.62872 10.8183 7.62837 10.8176C7.62769 10.8161 7.62705 10.8147 7.62642 10.8133C7.62515 10.8105 7.62397 10.8078 7.62288 10.8053C7.62283 10.8052 7.62278 10.8051 7.62272 10.8049C7.62522 10.8107 7.62778 10.8164 7.63047 10.822L7.63044 10.8219ZM7.62759 10.8152C7.62621 10.8122 7.62485 10.809 7.62348 10.8058C7.62482 10.809 7.62619 10.8121 7.62759 10.8152ZM7.63403 10.8291C7.63309 10.8271 7.63214 10.8251 7.6312 10.8231C7.63213 10.8251 7.63308 10.8271 7.63403 10.8291ZM7.70543 10.9404C7.70282 10.9372 7.70045 10.9343 7.69831 10.9316C7.70066 10.9345 7.70302 10.9375 7.70543 10.9404ZM7.7147 10.9513C7.71271 10.949 7.71082 10.9468 7.70902 10.9447C7.71089 10.9469 7.71279 10.9491 7.7147 10.9513ZM7.72421 10.9619C7.72308 10.9607 7.72198 10.9594 7.72089 10.9582C7.722 10.9594 7.7231 10.9607 7.72421 10.9619ZM7.73587 10.9742C7.73457 10.9729 7.73329 10.9715 7.73204 10.9702C7.73331 10.9716 7.73459 10.9729 7.73587 10.9742ZM7.74807 10.9864C7.74724 10.9856 7.74644 10.9847 7.74563 10.9839C7.74645 10.9847 7.74725 10.9856 7.74807 10.9864ZM5.64738 12.849C5.65152 12.8512 5.65346 12.8523 5.651 12.8509C5.65074 12.8508 5.64934 12.85 5.64738 12.849ZM5.11941 13.8291C5.11624 13.8274 5.11374 13.826 5.1136 13.8259C5.11541 13.8269 5.11984 13.8293 5.1252 13.8321C5.1229 13.8309 5.12093 13.8299 5.11941 13.8291ZM5.14303 13.8412C5.13927 13.8394 5.13537 13.8375 5.13135 13.8355C5.13489 13.8373 5.13848 13.839 5.14206 13.8407C5.14238 13.8408 5.1427 13.841 5.14303 13.8412ZM5.18302 13.858C5.18218 13.8577 5.18134 13.8574 5.18049 13.857C5.18201 13.8576 5.18353 13.8582 5.18505 13.8588C5.18438 13.8585 5.1837 13.8583 5.18302 13.858ZM5.1931 13.8617C5.19203 13.8613 5.19094 13.8609 5.18984 13.8605C5.18889 13.8602 5.1879 13.8598 5.18693 13.8595L5.1947 13.8622C5.19417 13.862 5.19363 13.8619 5.1931 13.8617ZM5.19603 13.8627C5.19599 13.8627 5.19595 13.8626 5.1959 13.8626C5.19577 13.8626 5.19562 13.8625 5.19549 13.8625L5.19603 13.8627ZM5.26309 13.8818C5.26187 13.8815 5.26067 13.8812 5.25947 13.881C5.26068 13.8812 5.26188 13.8815 5.26309 13.8818ZM5.27366 13.884C5.27329 13.8839 5.27292 13.8838 5.27255 13.8837C5.27292 13.8838 5.27329 13.8839 5.27366 13.884ZM5.29671 13.888C5.29592 13.8878 5.29515 13.8877 5.29437 13.8876C5.29515 13.8877 5.29593 13.8878 5.29671 13.888ZM5.31193 13.89C5.30968 13.8898 5.30746 13.8895 5.30527 13.8892C5.30749 13.8895 5.30971 13.8898 5.31193 13.89ZM5.32772 13.8918C5.32486 13.8915 5.32203 13.8912 5.31924 13.8909C5.32206 13.8912 5.32489 13.8915 5.32772 13.8918ZM5.34446 13.8931C5.34079 13.8929 5.33716 13.8926 5.33359 13.8923C5.33721 13.8926 5.34084 13.8929 5.34446 13.8931ZM5.36058 13.8939C5.35661 13.8938 5.35268 13.8936 5.34881 13.8934C5.35273 13.8936 5.35665 13.8938 5.36058 13.8939ZM7.61411 10.7824C7.61189 10.7765 7.60971 10.7704 7.60761 10.7641C7.60966 10.7702 7.61184 10.7763 7.61411 10.7824ZM5.19617 13.8627L5.19609 13.8627H5.19603L5.19617 13.8627Z" fill="#F9F9F9"/>
<path d="M8.2672 20.3625V23.4434C8.2672 23.7508 8.51641 24 8.82384 24H22.0059C22.3133 24 22.5625 23.7508 22.5625 23.4434V8.9909C22.5625 8.84321 22.5038 8.70157 22.3993 8.59717L18.9737 5.17367C18.8695 5.06951 18.7282 5.01092 18.5809 5.01076L8.82446 4.99999C8.67673 4.99983 8.53496 5.05842 8.43044 5.16283C8.32592 5.26723 8.2672 5.4089 8.2672 5.55663V11.8785C8.2672 12.1859 8.51641 12.4351 8.82384 12.4351C9.13126 12.4351 9.38048 12.1859 9.38048 11.8785V6.1139L18.3495 6.12379L21.4492 9.22157V22.8867H9.38048V20.3625C9.38048 20.0551 9.13126 19.8059 8.82384 19.8059C8.51641 19.8059 8.2672 20.0551 8.2672 20.3625Z" fill="#F9F9F9"/>
<path d="M22.0058 9.54736C22.231 9.54736 22.434 9.41169 22.5202 9.20365C22.6063 8.99561 22.5586 8.75616 22.3993 8.597L18.9737 5.17352C18.8145 5.0144 18.5751 4.96683 18.3672 5.05301C18.1592 5.13918 18.0236 5.34214 18.0236 5.56725V8.99072C18.0236 9.29815 18.2728 9.54736 18.5802 9.54736H22.0058ZM19.1369 6.91052L20.6614 8.43408H19.1369V6.91052Z" fill="#F9F9F9"/>
<path d="M19.5937 19.5703C19.5937 20.3774 18.939 21.0322 18.1306 21.0322C17.3223 21.0322 16.6675 20.3774 16.6675 19.5703C16.6675 18.7633 17.3223 18.1084 18.1306 18.1084C18.939 18.1084 19.5937 18.7633 19.5937 19.5703ZM20.707 19.5703C20.707 18.1478 19.5532 16.9951 18.1306 16.9951C16.708 16.9951 15.5542 18.1478 15.5542 19.5703C15.5542 20.9928 16.708 22.1455 18.1306 22.1455C19.5532 22.1455 20.707 20.9928 20.707 19.5703Z" fill="#F9F9F9"/>
<path d="M16.3611 8.34912C16.6685 8.34912 16.9177 8.0999 16.9177 7.79248C16.9177 7.48506 16.6685 7.23584 16.3611 7.23584H10.9846C10.6772 7.23584 10.428 7.48506 10.428 7.79248C10.428 8.0999 10.6772 8.34912 10.9846 8.34912H16.3611Z" fill="#F9F9F9"/>
<path d="M12.5597 10.5742C12.8672 10.5742 13.1164 10.325 13.1164 10.0176C13.1164 9.71016 12.8672 9.46094 12.5597 9.46094H10.9848C10.6774 9.46094 10.4282 9.71015 10.4282 10.0176C10.4282 10.325 10.6774 10.5742 10.9848 10.5742H12.5597Z" fill="#F9F9F9"/>
<path d="M16.3612 10.5742C16.6686 10.5742 16.9178 10.325 16.9178 10.0176C16.9178 9.71015 16.6686 9.46094 16.3612 9.46094H14.7863C14.4789 9.46094 14.2297 9.71015 14.2297 10.0176C14.2297 10.325 14.4789 10.5742 14.7863 10.5742H16.3612Z" fill="#F9F9F9"/>
</g>
</g>
<defs>
<clipPath id="clip0_341_1041">
<rect width="19" height="19" fill="white" transform="translate(3.5625 5)"/>
</clipPath>
</defs>
</svg>
