<svg width="56" height="56" viewBox="0 0 56 56" fill="none" xmlns="http://www.w3.org/2000/svg">
<g filter="url(#filter0_d_1_4469)">
<rect x="5.5" y="2" width="45" height="45" rx="12" fill="#F1AF5B" fill-opacity="0.1"/>
</g>
<path d="M37.3438 17.8125C37.3429 16.8596 36.964 15.9461 36.2902 15.2723C35.6164 14.5985 34.7029 14.2196 33.75 14.2188H20.8125C19.8596 14.2196 18.9461 14.5985 18.2723 15.2723C17.5985 15.9461 17.2196 16.8596 17.2188 17.8125V29.3125C17.2196 30.2654 17.5985 31.1789 18.2723 31.8527C18.9461 32.5265 19.8596 32.9054 20.8125 32.9062H26.9388C27.4195 33.6364 28.0435 34.2613 28.773 34.743C29.5025 35.2247 30.3223 35.5532 31.1826 35.7085C32.0428 35.8637 32.9257 35.8426 33.7776 35.6464C34.6294 35.4501 35.4325 35.0828 36.1382 34.5668C36.8438 34.0507 37.4372 33.3967 37.8824 32.6444C38.3276 31.8921 38.6153 31.0571 38.728 30.1902C38.8408 29.3234 38.7762 28.4426 38.5382 27.6014C38.3003 26.7603 37.8939 25.9762 37.3438 25.2968V17.8125ZM20.8125 31.4688C20.2408 31.4681 19.6928 31.2407 19.2885 30.8365C18.8843 30.4322 18.6569 29.8842 18.6562 29.3125V17.8125C18.6569 17.2408 18.8843 16.6928 19.2885 16.2885C19.6928 15.8843 20.2408 15.6569 20.8125 15.6562H33.75C34.3217 15.6569 34.8697 15.8843 35.274 16.2885C35.6782 16.6928 35.9056 17.2408 35.9062 17.8125V23.9388C34.7809 23.1679 33.4394 22.7748 32.0759 22.8166C30.7124 22.8583 29.3975 23.3327 28.3214 24.1711C27.2453 25.0094 26.4637 26.1684 26.0897 27.4803C25.7158 28.7921 25.7688 30.189 26.2411 31.4688H20.8125ZM32.3125 34.3438C31.3174 34.3438 30.3447 34.0487 29.5173 33.4958C28.6899 32.943 28.045 32.1572 27.6642 31.2379C27.2834 30.3185 27.1838 29.3069 27.3779 28.331C27.5721 27.355 28.0512 26.4585 28.7549 25.7549C29.4585 25.0512 30.355 24.5721 31.331 24.3779C32.3069 24.1838 33.3185 24.2834 34.2379 24.6642C35.1572 25.045 35.943 25.6899 36.4958 26.5173C37.0487 27.3447 37.3438 28.3174 37.3438 29.3125C37.3422 30.6464 36.8116 31.9252 35.8684 32.8684C34.9252 33.8116 33.6464 34.3422 32.3125 34.3438Z" fill="#F1AF5B"/>
<path d="M21.5312 19.9688H25.8438C26.0344 19.9688 26.2172 19.893 26.352 19.7582C26.4868 19.6234 26.5625 19.4406 26.5625 19.25C26.5625 19.0594 26.4868 18.8766 26.352 18.7418C26.2172 18.607 26.0344 18.5312 25.8438 18.5312H21.5312C21.3406 18.5312 21.1578 18.607 21.023 18.7418C20.8882 18.8766 20.8125 19.0594 20.8125 19.25C20.8125 19.4406 20.8882 19.6234 21.023 19.7582C21.1578 19.893 21.3406 19.9688 21.5312 19.9688Z" fill="#F1AF5B"/>
<path d="M26.5625 22.125C26.5625 21.9344 26.4868 21.7516 26.352 21.6168C26.2172 21.482 26.0344 21.4062 25.8438 21.4062H21.5312C21.3406 21.4062 21.1578 21.482 21.023 21.6168C20.8882 21.7516 20.8125 21.9344 20.8125 22.125C20.8125 22.3156 20.8882 22.4984 21.023 22.6332C21.1578 22.768 21.3406 22.8438 21.5312 22.8438H25.8438C26.0344 22.8438 26.2172 22.768 26.352 22.6332C26.4868 22.4984 26.5625 22.3156 26.5625 22.125Z" fill="#F1AF5B"/>
<path d="M33.0312 29.0149V26.4375C33.0312 26.2469 32.9555 26.0641 32.8207 25.9293C32.6859 25.7945 32.5031 25.7188 32.3125 25.7188C32.1219 25.7188 31.9391 25.7945 31.8043 25.9293C31.6695 26.0641 31.5938 26.2469 31.5938 26.4375V29.3125C31.5937 29.4069 31.6123 29.5004 31.6484 29.5876C31.6846 29.6748 31.7376 29.754 31.8043 29.8207L33.2418 31.2582C33.3774 31.3891 33.559 31.4615 33.7474 31.4599C33.9359 31.4583 34.1161 31.3827 34.2494 31.2494C34.3827 31.1161 34.4583 30.9359 34.4599 30.7474C34.4615 30.559 34.3891 30.3774 34.2582 30.2418L33.0312 29.0149Z" fill="#F1AF5B"/>
<defs>
<filter id="filter0_d_1_4469" x="-4.76837e-07" y="-2.38419e-07" width="56" height="56" filterUnits="userSpaceOnUse" color-interpolation-filters="sRGB">
<feFlood flood-opacity="0" result="BackgroundImageFix"/>
<feColorMatrix in="SourceAlpha" type="matrix" values="0 0 0 0 0 0 0 0 0 0 0 0 0 0 0 0 0 0 127 0" result="hardAlpha"/>
<feOffset dy="3.5"/>
<feGaussianBlur stdDeviation="2.75"/>
<feColorMatrix type="matrix" values="0 0 0 0 0 0 0 0 0 0 0 0 0 0 0 0 0 0 0.02 0"/>
<feBlend mode="normal" in2="BackgroundImageFix" result="effect1_dropShadow_1_4469"/>
<feBlend mode="normal" in="SourceGraphic" in2="effect1_dropShadow_1_4469" result="shape"/>
</filter>
</defs>
</svg>
