<svg width="48" height="40" viewBox="0 0 48 40" fill="none" xmlns="http://www.w3.org/2000/svg">
<rect x="0.5" y="0.5" width="39" height="39" rx="19.5" stroke="#E6E6E6"/>
<g clip-path="url(#clip0_1_2794)">
<mask id="mask0_1_2794" style="mask-type:luminance" maskUnits="userSpaceOnUse" x="10" y="8" width="24" height="24">
<path d="M10 8H34V32H10V8Z" fill="white"/>
</mask>
<g mask="url(#mask0_1_2794)">
<path d="M27 21.1529C27 21.4016 27.2017 21.6033 27.4504 21.6033L31.2038 21.6033L31.2038 22.0537C31.2038 22.2359 31.3135 22.4001 31.4818 22.4698C31.6501 22.5395 31.8439 22.501 31.9727 22.3722L33.7743 20.5705C33.9502 20.3947 33.9502 20.1095 33.7743 19.9336L31.9727 18.1319C31.8439 18.0031 31.6501 17.9646 31.4818 18.0343C31.3135 18.104 31.2038 18.2683 31.2038 18.4504L31.2038 18.9008L27.4504 18.9008C27.2017 18.9008 27 19.1025 27 19.3512L27 21.1529ZM31.6542 19.8016C31.8474 19.8016 32.0121 19.6801 32.0761 19.5093L32.8189 20.2521L32.0761 20.9948C32.0121 20.824 31.8474 20.7025 31.6542 20.7025L27.9008 20.7025L27.9008 19.8016L31.6542 19.8016Z" fill="#1F0D19"/>
<path d="M12.8125 28.3906V31.2969C12.8125 31.6852 13.1273 32 13.5156 32C13.904 32 14.2188 31.6852 14.2188 31.2969V28.3906C14.2187 28.0023 13.9039 27.6875 13.5156 27.6875C13.1273 27.6875 12.8125 28.0023 12.8125 28.3906Z" fill="#1F0D19"/>
<path d="M23.125 28.3906V31.2969C23.125 31.6852 23.4398 32 23.8281 32C24.2165 32 24.5312 31.6852 24.5312 31.2969V28.3906C24.5312 28.0023 24.2164 27.6875 23.8281 27.6875C23.4398 27.6875 23.125 28.0023 23.125 28.3906Z" fill="#1F0D19"/>
<path d="M25.9375 26.5156V30.5938H11.4062V26.5156C11.4063 24.8329 12.7704 23.4687 14.4531 23.4687H14.9219L14.94 23.4685C15.32 23.4589 15.625 23.1479 15.625 22.7656C15.625 22.3834 15.32 22.0724 14.94 22.0627L14.9219 22.0625H14.4531C11.9937 22.0625 10 24.0562 10 26.5156V31.2969C10 31.6852 10.3148 32 10.7031 32H26.6406C27.0289 32 27.3437 31.6852 27.3437 31.2969V26.5156C27.3437 24.0562 25.35 22.0625 22.8906 22.0625H22.4219C22.0335 22.0625 21.7187 22.3773 21.7187 22.7656C21.7187 23.1539 22.0335 23.4687 22.4219 23.4687H22.8906C24.5734 23.4687 25.9375 24.8329 25.9375 26.5156Z" fill="#1F0D19"/>
<path d="M19.8438 20.3848V21.1727L18.6719 23.2235L17.5 21.1727V20.3848C17.5 19.9965 17.1852 19.6817 16.7969 19.6817C16.4086 19.6817 16.0938 19.9965 16.0938 20.3848V21.3594C16.0938 21.4817 16.1257 21.602 16.1864 21.7082L18.0614 24.9895L18.0735 25.0098C18.2012 25.2169 18.4274 25.3437 18.6719 25.3438C18.9242 25.3438 19.1572 25.2086 19.2824 24.9895L21.1573 21.7082C21.2181 21.602 21.25 21.4817 21.25 21.3594V20.3848C21.25 19.9965 20.9352 19.6817 20.5469 19.6817C20.1586 19.6817 19.8438 19.9965 19.8438 20.3848Z" fill="#1F0D19"/>
<path d="M20.1403 26.6205C20.2992 26.7332 20.4981 26.775 20.6894 26.7354C20.8869 26.6945 21.0573 26.5708 21.1574 26.3957L23.0324 23.1145C23.2083 22.8066 23.1274 22.4159 22.8438 22.2031L20.9687 20.7969C20.8074 20.6759 20.6019 20.63 20.4044 20.6708C20.2069 20.7117 20.0365 20.8354 19.9364 21.0105L18.0614 24.2918C17.8855 24.5997 17.9663 24.9904 18.25 25.2031L20.125 26.6094L20.1403 26.6205ZM19.5903 24.4506L20.7622 22.3998L21.5034 22.9557L20.3315 25.0065L19.5903 24.4506Z" fill="#1F0D19"/>
<path d="M16.6544 26.7354C16.8519 26.7763 17.0574 26.7304 17.2187 26.6094L19.0938 25.2031C19.3774 24.9904 19.4583 24.5997 19.2824 24.2918L17.4074 21.0105C17.3073 20.8354 17.1369 20.7117 16.9394 20.6709C16.7419 20.63 16.5363 20.6759 16.375 20.7969L14.5 22.2031C14.2163 22.4159 14.1354 22.8066 14.3114 23.1145L16.1864 26.3957L16.196 26.412C16.2971 26.5785 16.4631 26.6958 16.6544 26.7354ZM15.8403 22.9557L16.5815 22.3998L17.7534 24.4506L17.0122 25.0065L15.8403 22.9557Z" fill="#1F0D19"/>
<path d="M17.9688 24.6406V31.2969C17.9688 31.6852 18.2835 32 18.6719 32C19.0602 32 19.375 31.6852 19.375 31.2969V24.6406C19.375 24.2523 19.0602 23.9375 18.6719 23.9375C18.2835 23.9375 17.9688 24.2523 17.9688 24.6406Z" fill="#1F0D19"/>
<path d="M12.8125 11.5157V13.9456C12.8125 14.3339 13.1273 14.6487 13.5156 14.6487C13.904 14.6487 14.2188 14.3339 14.2188 13.9456V11.5157C14.2188 10.3507 15.1631 9.40631 16.3281 9.40631H21.4844C22.6494 9.40632 23.5938 10.3507 23.5938 11.5157C23.5938 12.2486 23.2199 12.8944 22.6488 13.2737L23.4268 14.4452C24.3728 13.8169 25 12.7404 25 11.5157C25 9.57402 23.426 8.00007 21.4844 8.00006H16.3281C14.3865 8.00006 12.8125 9.57402 12.8125 11.5157ZM22.4521 14.2484C22.6669 14.5719 23.1033 14.66 23.4268 14.4452L22.6488 13.2737C22.3253 13.4886 22.2373 13.925 22.4521 14.2484Z" fill="#1F0D19"/>
<path d="M14.9219 17.375C15.3102 17.375 15.625 17.0602 15.625 16.6719V13.8594C15.625 13.4711 15.3102 13.1563 14.9219 13.1562H13.9844C12.8194 13.1562 11.875 14.1007 11.875 15.2656C11.875 16.4306 12.8194 17.375 13.9844 17.375H14.9219ZM13.2812 15.2656C13.2812 14.8773 13.5961 14.5625 13.9844 14.5625H14.2188V15.9688H13.9844C13.5961 15.9688 13.2812 15.6539 13.2812 15.2656Z" fill="#1F0D19"/>
<path d="M24.0625 15.2656C24.0625 15.6539 23.7477 15.9687 23.3594 15.9688H23.125V14.5625H23.3594C23.7477 14.5625 24.0625 14.8773 24.0625 15.2656ZM25.4688 15.2656C25.4688 14.1007 24.5243 13.1563 23.3594 13.1562H22.4219C22.0335 13.1562 21.7188 13.471 21.7188 13.8594V16.6719C21.7188 17.0602 22.0335 17.375 22.4219 17.375H23.3594C24.5243 17.375 25.4688 16.4306 25.4688 15.2656Z" fill="#1F0D19"/>
<path d="M21.7187 17.1406C21.7187 18.8234 20.3546 20.1875 18.6719 20.1875C16.9891 20.1875 15.625 18.8234 15.625 17.1406V14.4821C16.3769 14.3075 17.0336 13.8582 17.4697 13.2322C18.4425 14.0817 19.6992 14.5625 21.0156 14.5625H21.7187V17.1406ZM23.125 13.8594C23.125 13.4711 22.8102 13.1562 22.4219 13.1562H21.0156C19.7615 13.1562 18.5806 12.5658 17.8281 11.5625C17.6654 11.3456 17.3924 11.2415 17.1266 11.2951C16.8607 11.3488 16.6494 11.5505 16.5836 11.8136L16.5695 11.8698C16.3805 12.6258 15.7012 13.1562 14.9219 13.1562C14.5335 13.1562 14.2188 13.4711 14.2188 13.8594V17.1406C14.2188 19.6 16.2125 21.5938 18.6719 21.5938C21.1313 21.5937 23.125 19.6 23.125 17.1406V13.8594Z" fill="#1F0D19"/>
</g>
</g>
<rect x="35" y="13.5" width="13" height="13" rx="6.5" fill="#D67252"/>
<path d="M39 23.5V16.5H41.7563C42.1753 16.5 42.5538 16.595 42.892 16.785C43.2337 16.975 43.5039 17.23 43.7023 17.55C43.9008 17.87 44 18.2217 44 18.605C44 18.9983 43.8971 19.355 43.6913 19.675C43.4892 19.9917 43.2172 20.245 42.8754 20.435C42.5336 20.6217 42.1606 20.715 41.7563 20.715H40.3451V23.5H39ZM40.3451 19.495H41.613C41.8041 19.495 41.9787 19.4517 42.1367 19.365C42.2947 19.2783 42.4197 19.1617 42.5116 19.015C42.6071 18.8683 42.6549 18.705 42.6549 18.525C42.6549 18.3417 42.6071 18.1767 42.5116 18.03C42.4197 17.8833 42.2947 17.7667 42.1367 17.68C41.9787 17.5933 41.8041 17.55 41.613 17.55H40.3451V19.495Z" fill="#F9F9F9"/>
<defs>
<clipPath id="clip0_1_2794">
<rect width="24" height="24" fill="white" transform="translate(10 8)"/>
</clipPath>
</defs>
</svg>
