<svg width="35" height="35" viewBox="0 0 35 35" fill="none" xmlns="http://www.w3.org/2000/svg">
<rect width="35" height="35" rx="12" fill="white"/>
<g clip-path="url(#clip0_341_1163)">
<path d="M13.3997 9.26562C13.784 9.26562 14.0957 9.58042 14.0957 9.96875V12.9811C14.0957 13.3694 13.784 13.6842 13.3997 13.6842H10.4177C10.0333 13.6842 9.72169 13.3694 9.72169 12.9811V9.96875C9.72169 9.58042 10.0333 9.26562 10.4177 9.26562H13.3997ZM11.1137 12.2779H12.7037V10.6719H11.1137V12.2779Z" fill="#CC6B5A"/>
<path d="M25.2081 14.7435C25.4799 14.469 25.9206 14.469 26.1924 14.7435C26.4642 15.0181 26.4642 15.4633 26.1924 15.7379L24.7014 17.2441C24.4296 17.5187 23.9889 17.5187 23.7171 17.2441L22.2262 15.7379C21.9544 15.4633 21.9544 15.0181 22.2262 14.7435C22.498 14.469 22.9386 14.469 23.2104 14.7435L24.2093 15.7526L25.2081 14.7435Z" fill="#CC6B5A"/>
<path d="M25.7498 22.0187C25.7498 21.1592 25.0601 20.4624 24.2093 20.4624C23.3585 20.4624 22.6688 21.1592 22.6688 22.0187C22.6688 22.8781 23.3585 23.5749 24.2093 23.5749C25.0601 23.5749 25.7498 22.8781 25.7498 22.0187ZM27.1418 22.0187C27.1418 23.6548 25.8288 24.9812 24.2093 24.9812C22.5897 24.9812 21.2768 23.6548 21.2768 22.0187C21.2768 20.3825 22.5897 19.0562 24.2093 19.0562C25.8288 19.0562 27.1418 20.3825 27.1418 22.0187Z" fill="#CC6B5A"/>
<path d="M24.2093 23.5752C27.064 23.5752 29.3782 25.9131 29.3782 28.7971C29.3782 29.1854 29.0666 29.5002 28.6822 29.5002H19.7363C19.3519 29.5002 19.0403 29.1854 19.0403 28.7971C19.0403 25.9131 21.3546 23.5752 24.2093 23.5752ZM24.2093 24.9814C22.3611 24.9814 20.823 26.3225 20.4964 28.094H27.9221C27.5955 26.3225 26.0575 24.9815 24.2093 24.9814Z" fill="#CC6B5A"/>
<path d="M10.4177 9.26562C10.8021 9.26563 11.1137 9.58043 11.1137 9.96875V12.9811C11.1137 13.3694 10.8021 13.6842 10.4177 13.6842H6.31747C5.93308 13.6842 5.62147 13.3694 5.62147 12.9811V9.96875C5.62147 9.58042 5.93308 9.26562 6.31747 9.26562H10.4177ZM7.01347 12.2779H9.7217V10.6719H7.01347V12.2779Z" fill="#CC6B5A"/>
<path d="M17.4999 9.26562L17.5178 9.26585C17.8939 9.27547 18.1959 9.58649 18.1959 9.96875V12.9811C18.1959 13.3694 17.8842 13.6842 17.4999 13.6842H13.3996C13.0152 13.6842 12.7036 13.3694 12.7036 12.9811V9.96875C12.7036 9.58042 13.0152 9.26562 13.3996 9.26562H17.4999ZM14.0956 12.2779H16.8039V10.6719H14.0956V12.2779Z" fill="#CC6B5A"/>
<path d="M11.2127 8.08522C11.2127 7.44426 10.7064 6.92275 10.0758 6.90662L10.0456 6.90625H10.0442C9.39974 6.90625 8.87721 7.4341 8.87721 8.08522V8.08655C8.87721 8.73764 9.39972 9.26552 10.0442 9.26552H11.2127V8.08522ZM12.6047 9.96864C12.6047 10.357 12.293 10.6718 11.9087 10.6718H10.0442C8.64195 10.6718 7.50314 9.53229 7.48544 8.11996L7.48521 8.08655V8.08522C7.48521 6.65743 8.63098 5.5 10.0442 5.5H10.0456C11.4589 5.5 12.6047 6.65744 12.6047 8.08522V9.96864Z" fill="#CC6B5A"/>
<path d="M14.9401 8.08522C14.9401 7.44428 14.4338 6.92275 13.8032 6.90662L13.7731 6.90625H13.7717C13.1271 6.90625 12.6047 7.43409 12.6047 8.08522V9.26552H13.7731C14.4075 9.26552 14.9238 8.75402 14.9397 8.11699L14.9401 8.08655V8.08522ZM16.3321 8.08655C16.3321 9.51427 15.1864 10.6718 13.7731 10.6718H11.9087C11.5243 10.6718 11.2127 10.357 11.2127 9.96864V8.08522C11.2127 6.65744 12.3584 5.5 13.7717 5.5H13.7731C15.1863 5.5 16.3321 6.65743 16.3321 8.08522V8.08655Z" fill="#CC6B5A"/>
<path d="M13.3997 12.2783C13.784 12.2783 14.0957 12.5931 14.0957 12.9814V19.7596C14.0957 20.1479 13.784 20.4627 13.3997 20.4627H10.4177C10.0333 20.4627 9.72169 20.1479 9.72169 19.7596V12.9814C9.72169 12.5931 10.0333 12.2783 10.4177 12.2783H13.3997ZM11.1137 19.0564H12.7037V13.6846H11.1137V19.0564Z" fill="#CC6B5A"/>
<path d="M10.4177 12.2783C10.8021 12.2783 11.1137 12.5931 11.1137 12.9814V19.7596C11.1137 20.1479 10.8021 20.4627 10.4177 20.4627H6.31747C5.93308 20.4627 5.62147 20.1479 5.62147 19.7596V12.9814C5.62147 12.5931 5.93308 12.2783 6.31747 12.2783H10.4177ZM7.01347 19.0564H9.7217V13.6846H7.01347V19.0564Z" fill="#CC6B5A"/>
<path d="M17.4999 12.2783L17.5178 12.2785C17.8939 12.2882 18.1959 12.5992 18.1959 12.9814V19.7596C18.1959 20.1479 17.8842 20.4627 17.4999 20.4627H13.3996C13.0152 20.4627 12.7036 20.1479 12.7036 19.7596V12.9814C12.7036 12.5931 13.0152 12.2783 13.3996 12.2783H17.4999ZM14.0956 19.0564H16.8039V13.6846H14.0956V19.0564Z" fill="#CC6B5A"/>
<path d="M23.5133 15.9937V12.2279C23.5133 10.538 22.1547 9.16553 20.482 9.16553C20.0976 9.16553 19.786 8.85073 19.786 8.4624C19.786 8.07408 20.0976 7.75928 20.482 7.75928C22.9235 7.75928 24.9053 9.76135 24.9053 12.2279V15.9937C24.9053 16.382 24.5937 16.6968 24.2093 16.6968C23.8249 16.6968 23.5133 16.382 23.5133 15.9937Z" fill="#CC6B5A"/>
</g>
<defs>
<clipPath id="clip0_341_1163">
<rect width="23.7568" height="24" fill="white" transform="translate(5.62147 5.5)"/>
</clipPath>
</defs>
</svg>
