<svg width="48" height="40" viewBox="0 0 48 40" fill="none" xmlns="http://www.w3.org/2000/svg">
<rect x="0.5" y="0.5" width="39" height="39" rx="19.5" stroke="#E6E6E6"/>
<g clip-path="url(#clip0_1_2838)">
<mask id="mask0_1_2838" style="mask-type:luminance" maskUnits="userSpaceOnUse" x="10" y="8" width="24" height="24">
<path d="M10 8H34V32H10V8Z" fill="white"/>
</mask>
<g mask="url(#mask0_1_2838)">
<path d="M21.0156 31.9531L21.0309 31.953C21.3507 31.9461 21.6265 31.7237 21.7001 31.4111L23.575 23.4423L23.579 23.4246C23.6566 23.0525 23.4238 22.6844 23.0517 22.5968C22.6796 22.5093 22.3069 22.735 22.2105 23.1026L22.2062 23.1202L20.4587 30.5469H17.8225L16.0751 23.1202L16.0707 23.1026C15.9743 22.735 15.6017 22.5093 15.2296 22.5968C14.8516 22.6858 14.6172 23.0643 14.7062 23.4423L16.5812 31.4111L16.5848 31.4258C16.6648 31.7356 16.9444 31.9531 17.2656 31.9531H21.0156Z" fill="#1F0D19"/>
</g>
<path d="M21.6406 29.2969L21.6587 29.2966C22.0387 29.287 22.3437 28.976 22.3437 28.5938C22.3437 28.2115 22.0387 27.9005 21.6587 27.8909L21.6406 27.8906H16.6406C16.2523 27.8906 15.9375 28.2054 15.9375 28.5938C15.9375 28.9821 16.2523 29.2969 16.6406 29.2969H21.6406Z" fill="#1F0D19"/>
<path d="M22.2656 26.6406L22.2838 26.6404C22.6637 26.6308 22.9688 26.3198 22.9688 25.9375C22.9688 25.5552 22.6637 25.2442 22.2838 25.2346L22.2656 25.2344H16.0156C15.6273 25.2344 15.3125 25.5492 15.3125 25.9375C15.3125 26.3258 15.6273 26.6406 16.0156 26.6406H22.2656Z" fill="#1F0D19"/>
<mask id="mask1_1_2838" style="mask-type:luminance" maskUnits="userSpaceOnUse" x="10" y="8" width="24" height="24">
<path d="M10 8H34V32H10V8Z" fill="white"/>
</mask>
<g mask="url(#mask1_1_2838)">
<path d="M22.6563 11.5625V13.5897C21.9701 13.4269 21.3537 13.029 20.9219 12.4531L20.9219 12.4531L20.6406 12.0781C20.5078 11.9011 20.2995 11.7969 20.0781 11.7969C19.8568 11.7969 19.6484 11.9011 19.5156 12.0781L19.2343 12.4532V12.4533C18.6589 13.2204 17.7558 13.6719 16.7969 13.6719C14.8552 13.6719 13.2813 12.0979 13.2812 10.1562C13.2812 9.76795 13.5961 9.45312 13.9844 9.45312H20.5469C21.7119 9.45313 22.6563 10.3975 22.6563 11.5625ZM24.0625 11.5625C24.0625 9.62088 22.4885 8.04688 20.5469 8.04688H13.9844C12.8194 8.04688 11.875 8.9913 11.875 10.1562C11.875 12.8745 14.0786 15.0781 16.7969 15.0781C18.0509 15.0781 19.2394 14.5498 20.0781 13.6355C20.9168 14.5499 22.1053 15.0781 23.3594 15.0781C23.7477 15.0781 24.0625 14.7633 24.0625 14.375V11.5625Z" fill="#1F0D19"/>
<path d="M22.6562 14.375V17.1875C22.6562 19.1291 21.0823 20.7031 19.1406 20.7031C17.199 20.7031 15.625 19.1291 15.625 17.1875V13.9362C15.625 13.5478 15.3102 13.233 14.9219 13.233C14.5335 13.233 14.2188 13.5478 14.2188 13.9362V17.1875C14.2188 19.9057 16.4223 22.1094 19.1406 22.1094C21.8589 22.1094 24.0625 19.9057 24.0625 17.1875V14.375C24.0625 13.9867 23.7477 13.6719 23.3594 13.6719C22.9711 13.6719 22.6562 13.9867 22.6562 14.375Z" fill="#1F0D19"/>
<path d="M20.3125 20.9625V21.875C20.3125 23.0399 21.2569 23.9844 22.4219 23.9844H22.8906C25.0912 23.9844 26.875 25.7682 26.875 27.9688V30.5469H11.4062V27.9688C11.4062 25.7682 13.1901 23.9844 15.3906 23.9844H15.8594C17.0243 23.9844 17.9688 23.0399 17.9688 21.875V20.9625C17.9688 20.5742 17.654 20.2594 17.2656 20.2594C16.8773 20.2594 16.5625 20.5742 16.5625 20.9625V21.875C16.5625 22.2633 16.2477 22.5781 15.8594 22.5781H15.3906C12.4134 22.5781 10 24.9916 10 27.9688V31.25C10 31.6383 10.3148 31.9531 10.7031 31.9531H27.5781C27.9664 31.9531 28.2812 31.6383 28.2812 31.25V27.9688C28.2812 24.9916 25.8678 22.5781 22.8906 22.5781H22.4219C22.0336 22.5781 21.7187 22.2633 21.7187 21.875V20.9625C21.7187 20.5742 21.4039 20.2594 21.0156 20.2594C20.6273 20.2594 20.3125 20.5742 20.3125 20.9625Z" fill="#1F0D19"/>
</g>
<path d="M33.9063 19.3513C33.9063 19.1025 33.7046 18.9009 33.4558 18.9009L29.7024 18.9009L29.7024 18.4505C29.7024 18.2683 29.5927 18.1041 29.4244 18.0343C29.2561 17.9646 29.0624 18.0032 28.9336 18.132L27.1319 19.9336C26.956 20.1095 26.956 20.3947 27.1319 20.5706L28.9336 22.3722C29.0624 22.501 29.2561 22.5396 29.4244 22.4699C29.5927 22.4001 29.7024 22.2359 29.7024 22.0537L29.7024 21.6033L33.4558 21.6033C33.7046 21.6033 33.9062 21.4017 33.9063 21.1529L33.9063 19.3513ZM29.252 20.7025C29.0589 20.7025 28.8942 20.8241 28.8302 20.9949L28.0874 20.2521L28.8302 19.5093C28.8942 19.6801 29.0589 19.8017 29.252 19.8017L33.0054 19.8017L33.0054 20.7025L29.252 20.7025Z" fill="#1F0D19"/>
</g>
<rect x="35" y="13.5" width="13" height="13" rx="6.5" fill="#D67252"/>
<path d="M39 23.5V16.5H41.669C42.0467 16.5 42.388 16.595 42.6928 16.785C42.9977 16.975 43.2396 17.23 43.4185 17.55C43.5974 17.8667 43.6869 18.2183 43.6869 18.605C43.6869 18.9217 43.6289 19.2133 43.5129 19.48C43.4003 19.7433 43.2412 19.9717 43.0358 20.165C42.8337 20.3583 42.6001 20.505 42.335 20.605L44 23.5H42.6034L40.993 20.715H40.2127V23.5H39ZM40.2127 19.495H41.5298C41.7021 19.495 41.8595 19.4517 42.002 19.365C42.1445 19.2783 42.2588 19.1617 42.3449 19.015C42.4311 18.8683 42.4742 18.705 42.4742 18.525C42.4742 18.3417 42.4311 18.1767 42.3449 18.03C42.2588 17.8833 42.1445 17.7667 42.002 17.68C41.8595 17.5933 41.7021 17.55 41.5298 17.55H40.2127V19.495Z" fill="#F9F9F9"/>
<defs>
<clipPath id="clip0_1_2838">
<rect width="24" height="24" fill="white" transform="translate(10 8)"/>
</clipPath>
</defs>
</svg>
