<svg width="30" height="30" viewBox="0 0 30 30" fill="none" xmlns="http://www.w3.org/2000/svg">
<rect width="30" height="30" rx="12" fill="#F9F9F9" fill-opacity="0.2"/>
<path d="M15.0001 17.0005C16.1046 17.0005 17.0001 16.1051 17.0001 15.0005C17.0001 13.8959 16.1046 13.0005 15.0001 13.0005C13.8955 13.0005 13.0001 13.8959 13.0001 15.0005C13.0001 16.1051 13.8955 17.0005 15.0001 17.0005Z" stroke="#F9F9F9" stroke-width="1.5" stroke-miterlimit="10" stroke-linecap="round" stroke-linejoin="round"/>
<path d="M8.33339 15.5873V14.4139C8.33339 13.7206 8.90006 13.1473 9.60006 13.1473C10.8067 13.1473 11.3001 12.2939 10.6934 11.2473C10.3467 10.6473 10.5534 9.86728 11.1601 9.52061L12.3134 8.86061C12.8401 8.54728 13.5201 8.73394 13.8334 9.26061L13.9067 9.38728C14.5067 10.4339 15.4934 10.4339 16.1001 9.38728L16.1734 9.26061C16.4867 8.73394 17.1667 8.54728 17.6934 8.86061L18.8467 9.52061C19.4534 9.86728 19.6601 10.6473 19.3134 11.2473C18.7067 12.2939 19.2001 13.1473 20.4067 13.1473C21.1001 13.1473 21.6734 13.7139 21.6734 14.4139V15.5873C21.6734 16.2806 21.1067 16.8539 20.4067 16.8539C19.2001 16.8539 18.7067 17.7073 19.3134 18.7539C19.6601 19.3606 19.4534 20.1339 18.8467 20.4806L17.6934 21.1406C17.1667 21.4539 16.4867 21.2673 16.1734 20.7406L16.1001 20.6139C15.5001 19.5673 14.5134 19.5673 13.9067 20.6139L13.8334 20.7406C13.5201 21.2673 12.8401 21.4539 12.3134 21.1406L11.1601 20.4806C10.5534 20.1339 10.3467 19.3539 10.6934 18.7539C11.3001 17.7073 10.8067 16.8539 9.60006 16.8539C8.90006 16.8539 8.33339 16.2806 8.33339 15.5873Z" stroke="#F9F9F9" stroke-width="1.5" stroke-miterlimit="10" stroke-linecap="round" stroke-linejoin="round"/>
</svg>
