<svg width="30" height="30" viewBox="0 0 30 30" fill="none" xmlns="http://www.w3.org/2000/svg">
<rect width="30" height="30" rx="12" fill="#F9F9F9" fill-opacity="0.2"/>
<g clip-path="url(#clip0_341_1085)">
<path fill-rule="evenodd" clip-rule="evenodd" d="M14.1072 8.87939C13.3976 8.87939 12.8224 9.45462 12.8224 10.1642C12.8224 10.8738 13.3976 11.449 14.1072 11.449H20.8363C21.5459 11.449 22.1212 10.8738 22.1212 10.1642C22.1212 9.45462 21.5459 8.87939 20.8363 8.87939H14.1072ZM11.9435 10.1642C11.9435 8.96921 12.9122 8.00049 14.1072 8.00049H20.8363C22.0313 8.00049 23.0001 8.96921 23.0001 10.1642C23.0001 11.3592 22.0313 12.3279 20.8363 12.3279H14.1072C12.9122 12.3279 11.9435 11.3592 11.9435 10.1642Z" fill="#F9F9F9"/>
<path fill-rule="evenodd" clip-rule="evenodd" d="M14.1072 19.5518C13.3976 19.5518 12.8224 20.127 12.8224 20.8366C12.8224 21.5462 13.3976 22.1214 14.1072 22.1214H20.8363C21.5459 22.1214 22.1212 21.5462 22.1212 20.8366C22.1212 20.127 21.5459 19.5518 20.8363 19.5518H14.1072ZM11.9435 20.8366C11.9435 19.6416 12.9122 18.6729 14.1072 18.6729H20.8363C22.0313 18.6729 23.0001 19.6416 23.0001 20.8366C23.0001 22.0316 22.0313 23.0003 20.8363 23.0003H14.1072C12.9122 23.0003 11.9435 22.0316 11.9435 20.8366Z" fill="#F9F9F9"/>
<path fill-rule="evenodd" clip-rule="evenodd" d="M14.1072 14.2158C13.3976 14.2158 12.8224 14.791 12.8224 15.5006C12.8224 16.2102 13.3976 16.7854 14.1072 16.7854H20.8363C21.5459 16.7854 22.1212 16.2102 22.1212 15.5006C22.1212 14.791 21.5459 14.2158 20.8363 14.2158H14.1072ZM11.9435 15.5006C11.9435 14.3056 12.9122 13.3369 14.1072 13.3369H20.8363C22.0313 13.3369 23.0001 14.3056 23.0001 15.5006C23.0001 16.6956 22.0313 17.6644 20.8363 17.6644H14.1072C12.9122 17.6644 11.9435 16.6956 11.9435 15.5006Z" fill="#F9F9F9"/>
<path fill-rule="evenodd" clip-rule="evenodd" d="M9.4649 9.57812C9.1413 9.57812 8.87897 9.84046 8.87897 10.1641C8.87897 10.4877 9.1413 10.75 9.4649 10.75C9.78851 10.75 10.0508 10.4877 10.0508 10.1641C10.0508 9.84046 9.78851 9.57812 9.4649 9.57812ZM8.00006 10.1641C8.00006 9.35505 8.65589 8.69922 9.4649 8.69922C10.2739 8.69922 10.9297 9.35505 10.9297 10.1641C10.9297 10.9731 10.2739 11.6289 9.4649 11.6289C8.65589 11.6289 8.00006 10.9731 8.00006 10.1641Z" fill="#F9F9F9"/>
<path fill-rule="evenodd" clip-rule="evenodd" d="M9.4649 20.2505C9.1413 20.2505 8.87897 20.5128 8.87897 20.8364C8.87897 21.16 9.1413 21.4224 9.4649 21.4224C9.78851 21.4224 10.0508 21.16 10.0508 20.8364C10.0508 20.5128 9.78851 20.2505 9.4649 20.2505ZM8.00006 20.8364C8.00006 20.0274 8.65589 19.3716 9.4649 19.3716C10.2739 19.3716 10.9297 20.0274 10.9297 20.8364C10.9297 21.6454 10.2739 22.3013 9.4649 22.3013C8.65589 22.3013 8.00006 21.6454 8.00006 20.8364Z" fill="#F9F9F9"/>
<path fill-rule="evenodd" clip-rule="evenodd" d="M9.4649 16.4038C9.70761 16.4038 9.90436 16.6006 9.90436 16.8433V19.5489C9.90436 19.7916 9.70761 19.9883 9.4649 19.9883C9.2222 19.9883 9.02545 19.7916 9.02545 19.5489V16.8433C9.02545 16.6006 9.2222 16.4038 9.4649 16.4038Z" fill="#F9F9F9"/>
<path fill-rule="evenodd" clip-rule="evenodd" d="M9.4649 14.9146C9.1413 14.9146 8.87897 15.1769 8.87897 15.5005C8.87897 15.8241 9.1413 16.0864 9.4649 16.0864C9.78851 16.0864 10.0508 15.8241 10.0508 15.5005C10.0508 15.1769 9.78851 14.9146 9.4649 14.9146ZM8.00006 15.5005C8.00006 14.6915 8.65589 14.0356 9.4649 14.0356C10.2739 14.0356 10.9297 14.6915 10.9297 15.5005C10.9297 16.3095 10.2739 16.9653 9.4649 16.9653C8.65589 16.9653 8.00006 16.3095 8.00006 15.5005Z" fill="#F9F9F9"/>
<path fill-rule="evenodd" clip-rule="evenodd" d="M9.4649 11.0674C9.70761 11.0674 9.90436 11.2641 9.90436 11.5068V14.216C9.90436 14.4587 9.70761 14.6555 9.4649 14.6555C9.2222 14.6555 9.02545 14.4587 9.02545 14.216V11.5068C9.02545 11.2641 9.2222 11.0674 9.4649 11.0674Z" fill="#F9F9F9"/>
</g>
<defs>
<clipPath id="clip0_341_1085">
<rect width="15" height="15" fill="white" transform="translate(8.00006 8.00049)"/>
</clipPath>
</defs>
</svg>
