<svg width="56" height="56" viewBox="0 0 56 56" fill="none" xmlns="http://www.w3.org/2000/svg">
<g filter="url(#filter0_d_1_4482)">
<rect x="5.5" y="2" width="45" height="45" rx="12" fill="#5F55AE" fill-opacity="0.1"/>
</g>
<path d="M37.125 17.0938H36.4062V16.375C36.4062 15.8031 36.1791 15.2547 35.7747 14.8503C35.3703 14.4459 34.8219 14.2188 34.25 14.2188C33.6781 14.2188 33.1297 14.4459 32.7253 14.8503C32.3209 15.2547 32.0938 15.8031 32.0938 16.375V17.0938H24.9062V16.375C24.9062 15.8031 24.6791 15.2547 24.2747 14.8503C23.8703 14.4459 23.3219 14.2188 22.75 14.2188C22.1781 14.2188 21.6297 14.4459 21.2253 14.8503C20.8209 15.2547 20.5938 15.8031 20.5938 16.375V17.0938H19.875C19.3033 17.0944 18.7553 17.3218 18.351 17.726C17.9468 18.1303 17.7194 18.6783 17.7188 19.25V33.625C17.7194 34.1967 17.9468 34.7447 18.351 35.149C18.7553 35.5532 19.3033 35.7806 19.875 35.7812H37.125C37.6967 35.7806 38.2447 35.5532 38.649 35.149C39.0532 34.7447 39.2806 34.1967 39.2812 33.625V19.25C39.2806 18.6783 39.0532 18.1303 38.649 17.726C38.2447 17.3218 37.6967 17.0944 37.125 17.0938ZM33.5312 16.375C33.5312 16.1844 33.607 16.0016 33.7418 15.8668C33.8766 15.732 34.0594 15.6562 34.25 15.6562C34.4406 15.6562 34.6234 15.732 34.7582 15.8668C34.893 16.0016 34.9688 16.1844 34.9688 16.375V17.0938H33.5312V16.375ZM22.0312 16.375C22.0312 16.1844 22.107 16.0016 22.2418 15.8668C22.3766 15.732 22.5594 15.6562 22.75 15.6562C22.9406 15.6562 23.1234 15.732 23.2582 15.8668C23.393 16.0016 23.4688 16.1844 23.4688 16.375V17.0938H22.0312V16.375ZM37.8438 33.625C37.8435 33.8156 37.7677 33.9982 37.633 34.133C37.4982 34.2677 37.3156 34.3435 37.125 34.3438H19.875C19.6844 34.3435 19.5018 34.2677 19.367 34.133C19.2323 33.9982 19.1565 33.8156 19.1562 33.625V19.25C19.1565 19.0594 19.2323 18.8768 19.367 18.742C19.5018 18.6073 19.6844 18.5315 19.875 18.5312H20.5938V19.25C20.5938 19.4406 20.6695 19.6234 20.8043 19.7582C20.9391 19.893 21.1219 19.9688 21.3125 19.9688C21.5031 19.9688 21.6859 19.893 21.8207 19.7582C21.9555 19.6234 22.0312 19.4406 22.0312 19.25V18.5312H32.0938V19.25C32.0938 19.4406 32.1695 19.6234 32.3043 19.7582C32.4391 19.893 32.6219 19.9688 32.8125 19.9688C33.0031 19.9688 33.1859 19.893 33.3207 19.7582C33.4555 19.6234 33.5312 19.4406 33.5312 19.25V18.5312H37.125C37.3156 18.5315 37.4982 18.6073 37.633 18.742C37.7677 18.8768 37.8435 19.0594 37.8438 19.25V33.625Z" fill="#5F55AE"/>
<path d="M31.0448 28.6833C31.648 27.8256 31.9077 26.773 31.7725 25.7332C31.6373 24.6934 31.117 23.7422 30.3145 23.0673C29.512 22.3925 28.4856 22.0432 27.4381 22.0884C26.3905 22.1335 25.398 22.57 24.6566 23.3114C23.9152 24.0528 23.4788 25.0453 23.4336 26.0929C23.3884 27.1404 23.7377 28.1668 24.4126 28.9693C25.0874 29.7718 26.0386 30.292 27.0784 30.4273C28.1182 30.5625 29.1709 30.3028 30.0285 29.6996L32.3058 31.9769C32.4413 32.1078 32.6229 32.1802 32.8113 32.1786C32.9998 32.177 33.1801 32.1014 33.3133 31.9681C33.4466 31.8348 33.5222 31.6546 33.5238 31.4661C33.5254 31.2777 33.453 31.0961 33.3221 30.9605L31.0448 28.6833ZM29.5886 28.2003C29.5807 28.2076 29.5703 28.2097 29.5627 28.2175C29.5551 28.2253 29.5527 28.2353 29.5455 28.2434C29.0277 28.7498 28.3305 29.0306 27.6063 29.0246C26.8821 29.0185 26.1897 28.7261 25.6804 28.2111C25.1712 27.6962 24.8864 27.0006 24.8884 26.2763C24.8905 25.5521 25.1791 24.8581 25.6912 24.346C26.2033 23.8338 26.8973 23.5452 27.6215 23.5432C28.3458 23.5412 29.0414 23.8259 29.5563 24.3352C30.0713 24.8445 30.3638 25.5369 30.3698 26.2611C30.3759 26.9853 30.095 27.6825 29.5886 28.2003Z" fill="#5F55AE"/>
<defs>
<filter id="filter0_d_1_4482" x="-4.76837e-07" y="-2.38419e-07" width="56" height="56" filterUnits="userSpaceOnUse" color-interpolation-filters="sRGB">
<feFlood flood-opacity="0" result="BackgroundImageFix"/>
<feColorMatrix in="SourceAlpha" type="matrix" values="0 0 0 0 0 0 0 0 0 0 0 0 0 0 0 0 0 0 127 0" result="hardAlpha"/>
<feOffset dy="3.5"/>
<feGaussianBlur stdDeviation="2.75"/>
<feColorMatrix type="matrix" values="0 0 0 0 0 0 0 0 0 0 0 0 0 0 0 0 0 0 0.02 0"/>
<feBlend mode="normal" in2="BackgroundImageFix" result="effect1_dropShadow_1_4482"/>
<feBlend mode="normal" in="SourceGraphic" in2="effect1_dropShadow_1_4482" result="shape"/>
</filter>
</defs>
</svg>
