<svg width="24" height="24" viewBox="0 0 24 24" fill="none" xmlns="http://www.w3.org/2000/svg">
<path d="M14.4168 0H2.78168C1.2444 0 0 1.24171 0 2.77569V18.4228C0 19.9583 1.2444 21.2 2.78168 21.2H11.0266C10.1767 19.8568 9.61069 18.2729 9.61069 16.4557V13.992C9.45894 14.0829 9.28745 14.1328 9.10535 14.1328H4.04733C3.49038 14.1328 3.03512 13.6785 3.03512 13.1228C3.03512 12.5671 3.49038 12.1143 4.04733 12.1143H9.10535C9.29808 12.1143 9.46956 12.1643 9.62132 12.2551C9.66229 11.3965 10.066 10.6091 10.7033 10.0942H4.04581C3.49038 10.0957 3.03512 9.64146 3.03512 9.08571C3.03512 8.52997 3.49038 8.07569 4.04733 8.07569H13.1527C13.5776 8.07569 13.9418 8.33766 14.0936 8.71169L16.9769 7.73194C17.0482 7.70166 17.1181 7.68197 17.2 7.67137V2.77569C17.1985 1.24171 15.9541 0 14.4168 0ZM8.09314 6.05714H4.04581C3.49038 6.05714 3.03512 5.60286 3.03512 5.04711C3.03512 4.49137 3.49038 4.03709 4.04733 4.03709H8.09465C8.6516 4.03709 9.10686 4.49137 9.10686 5.04711C9.10686 5.60286 8.65008 6.05714 8.09314 6.05714Z" fill="#F9F9F9"/>
<path d="M23.3276 11.4264L18.12 9.65372C17.9132 9.58222 17.6885 9.58222 17.4802 9.65372L12.2726 11.4264C11.8709 11.5634 11.6001 11.9418 11.6001 12.3663V16.3569C11.6001 21.3888 17.1737 23.8199 17.4118 23.9212C17.5367 23.9733 17.6692 24.0001 17.8001 24.0001C17.9325 24.0001 18.0649 23.9733 18.1884 23.9212C18.4265 23.8199 24.0001 21.3888 24.0001 16.3569V12.3663C24.0001 11.9418 23.7293 11.5634 23.3276 11.4264ZM21.3219 15.1623L18.3462 19.135C18.1736 19.3659 17.9102 19.5089 17.623 19.5298C17.5992 19.5298 17.5754 19.5313 17.5531 19.5313C17.2912 19.5313 17.0383 19.427 16.8523 19.2408L14.869 17.2552C14.4821 16.8679 14.4821 16.2393 14.869 15.8505C15.2558 15.4617 15.8837 15.4632 16.272 15.8505L17.4475 17.0273L19.7373 13.9706C20.0661 13.5327 20.6881 13.4433 21.1255 13.7725C21.5615 14.1002 21.6507 14.7228 21.3219 15.1623Z" fill="#F9F9F9" fill-opacity="0.5"/>
</svg>
