<svg width="20" height="20" viewBox="0 0 20 20" fill="none" xmlns="http://www.w3.org/2000/svg">
<rect x="0.263158" y="0.263158" width="19.4737" height="19.4737" rx="9.73684" fill="#1F0D19"/>
<rect x="0.263158" y="0.263158" width="19.4737" height="19.4737" rx="9.73684" stroke="url(#paint0_linear_1_4728)" stroke-width="0.526316"/>
<path d="M9.90162 7.54545L7.99466 13H6.29011L4.38315 7.54545H5.98116L7.11397 11.4482H7.17079L8.30005 7.54545H9.90162ZM15.3141 9.10085L13.9292 9.18608C13.9055 9.06771 13.8546 8.96117 13.7765 8.86648C13.6983 8.76941 13.5954 8.69247 13.4675 8.63565C13.3421 8.57647 13.1917 8.54688 13.0165 8.54688C12.7822 8.54688 12.5845 8.59659 12.4235 8.69602C12.2625 8.79309 12.182 8.9233 12.182 9.08665C12.182 9.21686 12.2341 9.32694 12.3383 9.4169C12.4424 9.50687 12.6212 9.57907 12.8745 9.63352L13.8617 9.83239C14.392 9.94129 14.7874 10.1165 15.0478 10.358C15.3082 10.5994 15.4384 10.9167 15.4384 11.3097C15.4384 11.6671 15.3331 11.9808 15.1224 12.2507C14.914 12.5206 14.6276 12.7313 14.263 12.8828C13.9008 13.032 13.4829 13.1065 13.0094 13.1065C12.2874 13.1065 11.7121 12.9562 11.2836 12.6555C10.8574 12.3525 10.6077 11.9406 10.5343 11.4197L12.0222 11.3416C12.0672 11.5618 12.1761 11.7299 12.3489 11.8459C12.5217 11.9595 12.7431 12.0163 13.013 12.0163C13.2781 12.0163 13.4912 11.9654 13.6522 11.8636C13.8155 11.7595 13.8984 11.6257 13.9008 11.4624C13.8984 11.325 13.8404 11.2126 13.7268 11.125C13.6131 11.035 13.4379 10.9664 13.2012 10.919L12.2566 10.7308C11.7239 10.6243 11.3274 10.4396 11.067 10.1768C10.8089 9.91406 10.6799 9.57907 10.6799 9.17188C10.6799 8.8215 10.7746 8.51965 10.964 8.26634C11.1557 8.01302 11.4244 7.81771 11.7701 7.6804C12.1181 7.54309 12.5253 7.47443 12.9917 7.47443C13.6806 7.47443 14.2227 7.62003 14.6181 7.91122C15.0158 8.20241 15.2478 8.59896 15.3141 9.10085Z" fill="#EDE8EB"/>
<defs>
<linearGradient id="paint0_linear_1_4728" x1="10" y1="0" x2="10" y2="20" gradientUnits="userSpaceOnUse">
<stop stop-color="#6E5773"/>
<stop offset="1" stop-color="#FFB6B6"/>
</linearGradient>
</defs>
</svg>
